<svg width="24" height="24" viewBox="0 0 24 24" fill="none" xmlns="http://www.w3.org/2000/svg">
    <path fill-rule="evenodd" clip-rule="evenodd" d="M11.8568 2.27437C11.0488 3.06724 10.5455 4.2726 10.5455 5.91563V9.65217H7.08333V12.6889H10.5455V22.9565H13.7052V12.6889H17.0908L17.4838 9.65217H13.7052V6.31916C13.7052 5.70923 13.7836 5.05194 14.2052 4.55405C14.6477 4.03144 15.3523 3.81114 16.2826 3.81114L17.9167 3.81114V1.15229C17.3324 1.10206 16.3661 1.04348 15.2896 1.04348C13.8357 1.04348 12.6646 1.48177 11.8568 2.27437ZM11.0837 1.5434C12.1346 0.512254 13.6064 0 15.2896 0C16.4185 0 17.4292 0.0620787 18.0377 0.115078C18.5984 0.16392 19 0.619297 19 1.13843V3.81114C19 4.38744 18.515 4.85462 17.9167 4.85462H16.2826C15.5068 4.85462 15.1935 5.03786 15.0447 5.21357C14.8749 5.41402 14.7885 5.74988 14.7885 6.31916V8.6087H17.4838C18.1353 8.6087 18.6394 9.15858 18.5588 9.78127L18.1658 12.818C18.0982 13.3403 17.6373 13.7323 17.0908 13.7323H14.7885V22.9565C14.7885 23.5328 14.3035 24 13.7052 24H10.5455C9.94718 24 9.46215 23.5328 9.46215 22.9565V13.7323H7.08333C6.48503 13.7323 6 13.2652 6 12.6889V9.65217C6 9.07588 6.48503 8.6087 7.08333 8.6087H9.46215V5.91563C9.46215 4.06585 10.0331 2.57426 11.0837 1.5434Z" fill="black"/>
</svg>
