<svg width="24" height="24" viewBox="0 0 24 24" fill="none" xmlns="http://www.w3.org/2000/svg">
<path d="M18.761 7.9215C18.7591 7.91484 18.7561 7.90888 18.7536 7.90268C18.7486 7.8896 18.7431 7.87698 18.7357 7.86504C18.7316 7.85839 18.7272 7.85242 18.7224 7.84622C18.7146 7.83567 18.7059 7.82603 18.696 7.81708C18.6903 7.81157 18.6845 7.80652 18.6781 7.8017C18.6744 7.79894 18.6717 7.7955 18.668 7.79298C18.6595 7.78724 18.6501 7.78403 18.6412 7.77944C18.6366 7.77714 18.6331 7.7737 18.6283 7.77163L11.9726 5.01756C11.9162 4.99415 11.8533 4.99415 11.7968 5.01756L5.14115 7.77163C5.13633 7.7737 5.13265 7.77714 5.12806 7.77944C5.11911 7.7838 5.10993 7.78724 5.10167 7.79275C5.098 7.79527 5.09525 7.79871 5.09157 7.80147C5.08515 7.80629 5.07964 7.81157 5.0739 7.81685C5.06426 7.8258 5.05554 7.83544 5.04751 7.84599C5.04269 7.85219 5.03833 7.85816 5.0342 7.86481C5.02685 7.87675 5.02134 7.88937 5.01629 7.90245C5.01377 7.90888 5.01079 7.91462 5.00895 7.92127C5.00367 7.94147 5 7.96235 5 7.9837V16.0164C5 16.1094 5.056 16.1931 5.14161 16.2285L11.7973 18.9826C11.8003 18.9837 11.8035 18.9832 11.8065 18.9844C11.8319 18.9938 11.8581 19 11.8852 19C11.9123 19 11.9384 18.9938 11.9639 18.9844C11.9669 18.9832 11.9701 18.9837 11.9731 18.9826L18.6288 16.2285C18.7144 16.1931 18.7704 16.1094 18.7704 16.0164V7.9837C18.7704 7.96235 18.7667 7.94147 18.761 7.9215ZM11.6557 18.4269L5.45901 15.8631V8.32704L11.6557 10.8911V18.4269ZM11.8852 10.4894L5.82967 7.9837L11.8852 5.47795L17.9407 7.9837L11.8852 10.4894ZM18.3114 15.8631L12.1147 18.4272V10.8911L18.3114 8.32704V15.8631Z" fill="black" stroke="black" stroke-width="0.5"/>
</svg>
