<svg width="24" height="24" viewBox="0 0 24 24" fill="none" xmlns="http://www.w3.org/2000/svg">
<path d="M19.2006 18.5595L18.1699 6.95337C18.1478 6.69571 17.9306 6.50061 17.6766 6.50061H15.5564C15.5269 4.56442 13.9441 3 12.0006 3C10.057 3 8.47417 4.56442 8.44473 6.50061H6.32448C6.06681 6.50061 5.85332 6.69571 5.83123 6.95337L4.80056 18.5595C4.80056 18.5742 4.79688 18.589 4.79688 18.6037C4.79688 19.9252 6.00792 21 7.49871 21H16.5024C17.9932 21 19.2042 19.9252 19.2042 18.6037C19.2042 18.589 19.2042 18.5742 19.2006 18.5595ZM12.0006 3.99387C13.3956 3.99387 14.5331 5.11288 14.5625 6.50061H9.43859C9.46804 5.11288 10.6055 3.99387 12.0006 3.99387ZM16.5024 20.0061H7.49871C6.56375 20.0061 5.80546 19.3877 5.79074 18.6258L6.77724 7.49816H8.44105V9.00736C8.44105 9.28344 8.66191 9.50429 8.93798 9.50429C9.21405 9.50429 9.43491 9.28344 9.43491 9.00736V7.49816H14.5625V9.00736C14.5625 9.28344 14.7834 9.50429 15.0595 9.50429C15.3355 9.50429 15.5564 9.28344 15.5564 9.00736V7.49816H17.2202L18.2104 18.6258C18.1956 19.3877 17.4337 20.0061 16.5024 20.0061Z" fill="black"/>
</svg>
