<svg width="32" height="32" viewBox="0 0 32 32" fill="none" xmlns="http://www.w3.org/2000/svg">
<path d="M13.1504 13H14.8504V21H13.1504V13Z" fill="black"/>
<path d="M17.1504 13H18.8504V21H17.1504V13Z" fill="black"/>
<path d="M8 9V10.3333H9.33333V23.6667C9.33333 24.0203 9.47381 24.3594 9.72386 24.6095C9.97391 24.8595 10.313 25 10.6667 25H21.3333C21.687 25 22.0261 24.8595 22.2761 24.6095C22.5262 24.3594 22.6667 24.0203 22.6667 23.6667V10.3333H24V9H8ZM10.6667 23.6667V10.3333H21.3333V23.6667H10.6667Z" fill="black"/>
<path d="M13 6H19V8H13V6Z" fill="black"/>
</svg>
