<svg width="24" height="24" viewBox="0 0 24 24" fill="none" xmlns="http://www.w3.org/2000/svg">
<path d="M12 20.0142C11.7437 20.0142 11.4967 19.9214 11.3041 19.7527C10.577 19.1169 9.87592 18.5194 9.25739 17.9923L9.25423 17.9896C7.4408 16.4442 5.87484 15.1096 4.78527 13.795C3.56731 12.3253 3 10.9318 3 9.40953C3 7.9305 3.50716 6.56599 4.42795 5.5672C5.35972 4.55659 6.63825 4 8.02843 4C9.06746 4 10.019 4.32849 10.8566 4.97627C11.2793 5.30325 11.6624 5.70343 12 6.17021C12.3377 5.70343 12.7207 5.30325 13.1435 4.97627C13.9811 4.32849 14.9326 4 15.9717 4C17.3617 4 18.6404 4.55659 19.5722 5.5672C20.4929 6.56599 21 7.9305 21 9.40953C21 10.9318 20.4328 12.3253 19.2148 13.7949C18.1253 15.1096 16.5594 16.4441 14.7463 17.9893C14.1267 18.5172 13.4245 19.1157 12.6957 19.753C12.5033 19.9214 12.2561 20.0142 12 20.0142ZM8.02843 5.05441C6.93626 5.05441 5.93293 5.4903 5.20303 6.28186C4.46228 7.08537 4.05427 8.19609 4.05427 9.40953C4.05427 10.6898 4.53012 11.8349 5.59703 13.1222C6.62823 14.3666 8.16205 15.6737 9.93799 17.1872L9.94129 17.1899C10.5622 17.719 11.266 18.3189 11.9985 18.9594C12.7354 18.3177 13.4403 17.7168 14.0624 17.1869C15.8382 15.6734 17.3719 14.3666 18.4031 13.1222C19.4698 11.8349 19.9457 10.6898 19.9457 9.40953C19.9457 8.19609 19.5377 7.08537 18.7969 6.28186C18.0672 5.4903 17.0637 5.05441 15.9717 5.05441C15.1716 5.05441 14.437 5.30875 13.7884 5.81027C13.2104 6.25742 12.8078 6.82266 12.5717 7.21817C12.4503 7.42155 12.2366 7.54295 12 7.54295C11.7634 7.54295 11.5497 7.42155 11.4283 7.21817C11.1924 6.82266 10.7897 6.25742 10.2115 5.81027C9.56295 5.30875 8.82837 5.05441 8.02843 5.05441Z" fill="black"/>
</svg>
