<svg width="32" height="32" viewBox="0 0 32 32" fill="none" xmlns="http://www.w3.org/2000/svg">
<path fill-rule="evenodd" clip-rule="evenodd" d="M5 21.0714C5 20.8252 5.09658 20.589 5.26849 20.4148C5.44039 20.2407 5.67355 20.1429 5.91667 20.1429H11.4167C11.6598 20.1429 11.8929 20.2407 12.0648 20.4148C12.2368 20.589 12.3333 20.8252 12.3333 21.0714C12.3333 21.3177 12.2368 21.5539 12.0648 21.728C11.8929 21.9022 11.6598 22 11.4167 22H5.91667C5.67355 22 5.44039 21.9022 5.26849 21.728C5.09658 21.5539 5 21.3177 5 21.0714ZM5 15.5C5 15.2537 5.09658 15.0175 5.26849 14.8434C5.44039 14.6693 5.67355 14.5714 5.91667 14.5714H18.75C18.9931 14.5714 19.2263 14.6693 19.3982 14.8434C19.5701 15.0175 19.6667 15.2537 19.6667 15.5C19.6667 15.7463 19.5701 15.9825 19.3982 16.1566C19.2263 16.3307 18.9931 16.4286 18.75 16.4286H5.91667C5.67355 16.4286 5.44039 16.3307 5.26849 16.1566C5.09658 15.9825 5 15.7463 5 15.5ZM5 9.92857C5 9.6823 5.09658 9.44611 5.26849 9.27197C5.44039 9.09783 5.67355 9 5.91667 9H26.0833C26.3264 9 26.5596 9.09783 26.7315 9.27197C26.9034 9.44611 27 9.6823 27 9.92857C27 10.1748 26.9034 10.411 26.7315 10.5852C26.5596 10.7593 26.3264 10.8571 26.0833 10.8571H5.91667C5.67355 10.8571 5.44039 10.7593 5.26849 10.5852C5.09658 10.411 5 10.1748 5 9.92857Z" fill="black"/>
</svg>
