<svg width="24" height="24" viewBox="0 0 24 24" fill="none" xmlns="http://www.w3.org/2000/svg">
<path d="M12 13.8C16.9704 13.8 21 15.6804 21 18V21H3V18C3 15.6804 7.0296 13.8 12 13.8ZM19.8 18C19.8 16.344 16.308 15 12 15C7.692 15 4.2 16.344 4.2 18V19.8H19.8V18ZM12 3C13.1139 3 14.1822 3.4425 14.9698 4.23015C15.7575 5.0178 16.2 6.08609 16.2 7.2C16.2 8.31391 15.7575 9.3822 14.9698 10.1698C14.1822 10.9575 13.1139 11.4 12 11.4C10.8861 11.4 9.8178 10.9575 9.03015 10.1698C8.2425 9.3822 7.8 8.31391 7.8 7.2C7.8 6.08609 8.2425 5.0178 9.03015 4.23015C9.8178 3.4425 10.8861 3 12 3ZM12 4.2C11.2044 4.2 10.4413 4.51607 9.87868 5.07868C9.31607 5.64129 9 6.40435 9 7.2C9 7.99565 9.31607 8.75871 9.87868 9.32132C10.4413 9.88393 11.2044 10.2 12 10.2C12.7956 10.2 13.5587 9.88393 14.1213 9.32132C14.6839 8.75871 15 7.99565 15 7.2C15 6.40435 14.6839 5.64129 14.1213 5.07868C13.5587 4.51607 12.7956 4.2 12 4.2Z" fill="black"/>
</svg>
