<svg width="24" height="24" viewBox="0 0 24 24" fill="none" xmlns="http://www.w3.org/2000/svg">
<path d="M9.85859 3.08093C11.1552 3.0809 12.4245 3.45262 13.5161 4.15199C14.6077 4.85135 15.4756 5.84901 16.0169 7.02659C16.5583 8.20416 16.7503 9.51224 16.5702 10.7956C16.3901 12.079 15.8454 13.2838 15.0009 14.2671L20.8855 20.1488L20.1484 20.8856L14.2627 15.0028C13.4326 15.7123 12.4433 16.2108 11.3789 16.4557C10.3146 16.7007 9.20678 16.685 8.14985 16.4098C7.09291 16.1346 6.11817 15.6082 5.30864 14.8754C4.49911 14.1426 3.87877 13.2251 3.50046 12.201C3.12215 11.1769 2.99708 10.0766 3.13589 8.9938C3.27471 7.91099 3.6733 6.87776 4.29771 5.9821C4.92213 5.08644 5.75388 4.35488 6.72212 3.84974C7.69035 3.34461 8.76639 3.08085 9.85859 3.08093ZM9.85859 4.12305C8.33771 4.12305 6.87911 4.72692 5.80369 5.80182C4.72826 6.87672 4.12409 8.33459 4.12409 9.85472C4.12409 11.3749 4.72826 12.8327 5.80369 13.9076C6.87911 14.9825 8.33771 15.5864 9.85859 15.5864C11.3795 15.5864 12.8381 14.9825 13.9135 13.9076C14.9889 12.8327 15.5931 11.3749 15.5931 9.85472C15.5931 8.33459 14.9889 6.87672 13.9135 5.80182C12.8381 4.72692 11.3795 4.12305 9.85859 4.12305Z" fill="black"/>
<path fill-rule="evenodd" clip-rule="evenodd" d="M14.2627 15.0028C13.4326 15.7123 12.4433 16.2108 11.3789 16.4557C10.3146 16.7007 9.20678 16.685 8.14985 16.4098C7.09291 16.1346 6.11817 15.6082 5.30864 14.8754C4.49911 14.1426 3.87877 13.2251 3.50046 12.201C3.12215 11.1769 2.99708 10.0766 3.13589 8.9938C3.27471 7.91099 3.6733 6.87776 4.29771 5.9821C4.92213 5.08644 5.75388 4.35488 6.72212 3.84974C7.69035 3.34461 8.76639 3.08085 9.85859 3.08093C11.1552 3.0809 12.4245 3.45262 13.5161 4.15199C14.6077 4.85135 15.4756 5.84901 16.0169 7.02659C16.5583 8.20416 16.7503 9.51224 16.5702 10.7956C16.3901 12.079 15.8454 13.2838 15.0009 14.2671L20.8855 20.1488L20.1484 20.8856L14.2627 15.0028ZM15.1109 14.2626C15.9378 13.2782 16.4716 12.0808 16.6503 10.8069C16.8326 9.50814 16.6383 8.18443 16.0905 6.99278C15.5427 5.80113 14.6644 4.79156 13.5598 4.08384C12.4552 3.37613 11.1706 2.99997 9.85859 3C8.75336 2.99992 7.66448 3.26682 6.68468 3.77799C5.70489 4.28916 4.8632 5.02945 4.23133 5.93581C3.59945 6.84217 3.19609 7.88775 3.05562 8.98351C2.91514 10.0793 3.04171 11.1927 3.42454 12.229C3.80738 13.2654 4.43513 14.1938 5.25433 14.9354C6.07353 15.677 7.05991 16.2097 8.12946 16.4881C9.19901 16.7666 10.32 16.7825 11.3971 16.5346C12.4498 16.2923 13.43 15.8049 14.2581 15.1126L20.1484 21L21 20.1488L15.1109 14.2626ZM9.85859 4.20398C8.35916 4.20398 6.92115 4.79934 5.8609 5.85906C4.80065 6.91878 4.20502 8.35606 4.20502 9.85472C4.20502 11.3534 4.80065 12.7907 5.8609 13.8504C6.92115 14.9101 8.35916 15.5055 9.85859 15.5055C11.358 15.5055 12.796 14.9101 13.8563 13.8504C14.9165 12.7907 15.5122 11.3534 15.5122 9.85472C15.5122 8.35606 14.9165 6.91878 13.8563 5.85906C12.796 4.79934 11.358 4.20398 9.85859 4.20398ZM5.80369 5.80182C6.87911 4.72692 8.33771 4.12305 9.85859 4.12305C11.3795 4.12305 12.8381 4.72692 13.9135 5.80182C14.9889 6.87672 15.5931 8.33459 15.5931 9.85472C15.5931 11.3749 14.9889 12.8327 13.9135 13.9076C12.8381 14.9825 11.3795 15.5864 9.85859 15.5864C8.33771 15.5864 6.87911 14.9825 5.80369 13.9076C4.72826 12.8327 4.12409 11.3749 4.12409 9.85472C4.12409 8.33459 4.72826 6.87672 5.80369 5.80182Z" fill="black"/>
</svg>
