<svg width="24" height="24" viewBox="0 0 24 24" fill="none" xmlns="http://www.w3.org/2000/svg">
<path d="M3.42497 2.57537C3.36919 2.51959 3.30296 2.47533 3.23007 2.44514C3.15718 2.41495 3.07906 2.39941 3.00017 2.39941C2.92128 2.39941 2.84316 2.41495 2.77027 2.44514C2.69738 2.47533 2.63116 2.51959 2.57537 2.57537C2.51959 2.63116 2.47533 2.69738 2.44514 2.77027C2.41495 2.84316 2.39941 2.92128 2.39941 3.00017C2.39941 3.07906 2.41495 3.15718 2.44514 3.23007C2.47533 3.30296 2.51959 3.36919 2.57537 3.42497L6.77537 7.62257C4.69526 9.04137 3.24714 11.2123 2.73617 13.6778C2.7201 13.755 2.71939 13.8346 2.73409 13.9121C2.74879 13.9896 2.77861 14.0634 2.82184 14.1294C2.86508 14.1954 2.92088 14.2522 2.98607 14.2966C3.05126 14.341 3.12455 14.3721 3.20177 14.3882C3.27899 14.4042 3.35862 14.405 3.43611 14.3903C3.5136 14.3756 3.58743 14.3457 3.6534 14.3025C3.71937 14.2593 3.77617 14.2035 3.82057 14.1383C3.86497 14.0731 3.8961 13.9998 3.91217 13.9226C4.14109 12.8145 4.58875 11.7631 5.22895 10.8301C5.86914 9.89715 6.68901 9.10123 7.64057 8.48897L9.54377 10.3922C9.0503 10.748 8.64002 11.2068 8.34132 11.7368C8.04262 12.2668 7.86264 12.8554 7.81382 13.4618C7.76499 14.0683 7.8485 14.6781 8.05857 15.249C8.26863 15.82 8.60023 16.3385 9.03042 16.7687C9.46062 17.1989 9.97914 17.5305 10.5501 17.7406C11.1211 17.9506 11.7309 18.0341 12.3373 17.9853C12.9437 17.9365 13.5323 17.7565 14.0623 17.4578C14.5923 17.1591 15.0511 16.7488 15.407 16.2554L20.5754 21.425C20.688 21.5376 20.8408 21.6009 21.0002 21.6009C21.1595 21.6009 21.3123 21.5376 21.425 21.425C21.5376 21.3123 21.6009 21.1595 21.6009 21.0002C21.6009 20.8408 21.5376 20.688 21.425 20.5754L3.42497 2.57537ZM14.543 15.3914C14.3035 15.7735 13.9809 16.0967 13.5992 16.337C13.2176 16.5772 12.7867 16.7283 12.3386 16.7791C11.8905 16.8298 11.4367 16.7789 11.011 16.6301C10.5852 16.4812 10.1986 16.2384 9.87968 15.9195C9.56079 15.6006 9.3179 15.2139 9.16907 14.7882C9.02024 14.3625 8.96931 13.9087 9.02005 13.4606C9.0708 13.0125 9.22192 12.5815 9.46218 12.1999C9.70244 11.8182 10.0256 11.4957 10.4078 11.2562L14.543 15.3926V15.3914Z" fill="black"/>
<path d="M12.1475 9.60254L16.1975 13.6513C16.1599 12.5895 15.7212 11.5814 14.9699 10.8301C14.2186 10.0788 13.2105 9.64012 12.1487 9.60254H12.1475Z" fill="black"/>
<path d="M11.9999 7.2C11.3159 7.2 10.6451 7.2888 10.0007 7.4556L9.03711 6.492C9.99099 6.16642 10.992 6.00019 11.9999 6C16.4315 6 20.3303 9.2076 21.2639 13.6776C21.2964 13.8335 21.2656 13.996 21.1782 14.1292C21.0909 14.2625 20.9543 14.3555 20.7983 14.388C20.6424 14.4205 20.4799 14.3896 20.3467 14.3023C20.2135 14.215 20.1204 14.0783 20.0879 13.9224C19.2695 9.9924 15.8483 7.2 11.9999 7.2Z" fill="black"/>
</svg>
