<svg width="24" height="24" viewBox="0 0 24 24" fill="none" xmlns="http://www.w3.org/2000/svg">
<path d="M3.91224 13.9224C4.73064 9.9924 8.15184 7.2 12.0002 7.2C15.8474 7.2 19.2686 9.9924 20.0882 13.9224C20.1207 14.0783 20.2138 14.215 20.347 14.3023C20.4802 14.3896 20.6427 14.4205 20.7986 14.388C20.9546 14.3555 21.0913 14.2625 21.1786 14.1292C21.2659 13.996 21.2967 13.8335 21.2642 13.6776C20.3318 9.2076 16.4318 6 12.0002 6C7.56864 6 3.66864 9.2076 2.73624 13.6776C2.70378 13.8335 2.73459 13.996 2.82191 14.1292C2.90923 14.2625 3.04589 14.3555 3.20184 14.388C3.35779 14.4205 3.52024 14.3896 3.65347 14.3023C3.78669 14.215 3.87978 14.0783 3.91224 13.9224Z" fill="black"/>
<path d="M11.9998 9.59961C10.8859 9.59961 9.81761 10.0421 9.02996 10.8298C8.2423 11.6174 7.7998 12.6857 7.7998 13.7996C7.7998 14.9135 8.2423 15.9818 9.02996 16.7695C9.81761 17.5571 10.8859 17.9996 11.9998 17.9996C13.1137 17.9996 14.182 17.5571 14.9697 16.7695C15.7573 15.9818 16.1998 14.9135 16.1998 13.7996C16.1998 12.6857 15.7573 11.6174 14.9697 10.8298C14.182 10.0421 13.1137 9.59961 11.9998 9.59961ZM8.9998 13.7996C8.9998 13.004 9.31588 12.2409 9.87848 11.6783C10.4411 11.1157 11.2042 10.7996 11.9998 10.7996C12.7955 10.7996 13.5585 11.1157 14.1211 11.6783C14.6837 12.2409 14.9998 13.004 14.9998 13.7996C14.9998 14.5953 14.6837 15.3583 14.1211 15.9209C13.5585 16.4835 12.7955 16.7996 11.9998 16.7996C11.2042 16.7996 10.4411 16.4835 9.87848 15.9209C9.31588 15.3583 8.9998 14.5953 8.9998 13.7996Z" fill="black"/>
</svg>
