<svg width="190" height="40" viewBox="0 0 190 40" fill="none" xmlns="http://www.w3.org/2000/svg">
<g clip-path="url(#clip0)">
<path d="M85.1042 31.3392V1.37034C85.1042 0.476641 86.403 0.387271 87.2379 0.357481C87.0524 0 87.0524 0 87.0524 0H80.3418C80.3418 0 80.3418 0 80.1562 0.327691C80.9603 0.387271 82.29 0.476641 82.29 1.34055V31.3094C82.29 32.2031 80.9912 32.2925 80.1562 32.3222C80.3418 32.6499 80.3418 32.6499 80.3418 32.6499H87.0524C87.0524 32.6499 87.0524 32.6499 87.2379 32.3222C86.403 32.3222 85.1042 32.2329 85.1042 31.3392Z" fill="white"/>
<path d="M25.9766 31.3392V1.37034C25.9766 0.476641 27.2754 0.387271 28.1104 0.357481C27.9248 0 27.9248 0 27.9248 0H23.0697L14.7201 26.8707L5.56641 0H0.185547C0.185547 0 0.185547 0 0 0.327691C0.804036 0.387271 2.10286 0.476641 2.13379 1.34055V31.3392C2.13379 32.2329 0.834961 32.3222 0 32.352C0.185547 32.6797 0.185547 32.6797 0.185547 32.6797H5.28809C5.28809 32.6797 5.28809 32.6797 5.47363 32.352C4.6696 32.2925 3.33984 32.2031 3.33984 31.3392V1.99594L13.7923 32.7095H14.1943L23.1934 3.69397V31.3392C23.1934 32.2329 21.8945 32.3222 21.0596 32.352C21.2451 32.6797 21.2451 32.6797 21.2451 32.6797H27.9557C27.9557 32.6797 27.9557 32.6797 28.1413 32.352C27.2754 32.3222 25.9766 32.2329 25.9766 31.3392Z" fill="white"/>
<path d="M137.985 31.3392V1.37034C137.985 0.476641 139.284 0.387271 140.119 0.357481C139.934 0 139.934 0 139.934 0H135.078L126.729 26.8707L117.606 0H112.194C112.194 0 112.194 0 112.009 0.327691C112.813 0.387271 114.112 0.476641 114.143 1.34055V31.3392C114.143 32.2329 112.844 32.3222 112.009 32.352C112.194 32.6797 112.194 32.6797 112.194 32.6797H117.297C117.297 32.6797 117.297 32.6797 117.482 32.352C116.678 32.2925 115.349 32.2031 115.349 31.3392V1.99594L125.801 32.7095H126.203L135.202 3.69397V31.3392C135.202 32.2329 133.903 32.3222 133.068 32.352C133.254 32.6797 133.254 32.6797 133.254 32.6797H139.965C139.965 32.6797 139.965 32.6797 140.15 32.352C139.315 32.3222 137.985 32.2329 137.985 31.3392Z" fill="white"/>
<path d="M53.0662 31.369L43.6651 0H40.7273L41.6551 3.12796L32.9034 31.3392C32.6251 32.2627 31.6046 32.3222 30.7696 32.352C30.9552 32.6797 30.9552 32.6797 30.9552 32.6797H36.1196C36.1196 32.6797 36.1196 32.6797 36.3051 32.352C35.5011 32.2925 33.9239 32.1733 34.1713 31.3392L37.6349 20.1381H46.7576L50.1284 31.369C50.3448 32.2031 48.7986 32.3222 47.9946 32.352C48.1801 32.6797 48.1801 32.6797 48.1801 32.6797H55.0144C55.0144 32.6797 55.0144 32.6797 55.2 32.352C54.365 32.3222 53.3445 32.2627 53.0662 31.369ZM38.006 18.9763L42.2735 5.18348L46.4174 18.9763H38.006Z" fill="white"/>
<path d="M74.7136 31.37L68.9926 16.3558C72.0541 15.1046 74.2498 12.066 74.2498 8.49118C74.2498 3.81414 70.5079 0.0307965 65.9002 0.0307965H57.7361C57.7361 0.0307965 57.7361 0.0307965 57.5505 0.358487C58.3546 0.418068 59.6843 0.507438 59.6843 1.37135V31.3402C59.6843 32.2339 58.3855 32.3232 57.5505 32.353C57.7361 32.6807 57.7361 32.6807 57.7361 32.6807H64.4467C64.4467 32.6807 64.4467 32.6807 64.6323 32.353C63.8282 32.2935 62.4985 32.2041 62.4985 31.3402V16.9218C62.4985 16.9218 66.5186 16.892 66.797 16.8622L72.3324 31.37C72.5798 32.2041 71.0027 32.2935 70.1987 32.353C70.3842 32.6807 70.3842 32.6807 70.3842 32.6807H76.6619C76.6619 32.6807 76.6619 32.6807 76.8474 32.353C76.0434 32.3232 75.0847 32.3232 74.7136 31.37ZM62.4985 15.7898V1.16282H65.9002C68.9617 1.16282 71.4356 4.43973 71.4356 8.46139C71.4356 12.5128 68.9617 15.7898 65.9311 15.7898H62.4985Z" fill="white"/>
<path d="M190 39.9783C190 39.9783 182.393 32.5606 177.94 16.3548C181.032 15.1334 183.228 12.065 183.228 8.46038C183.228 3.78334 179.486 0 174.878 0H166.714C166.714 0 166.714 0 166.529 0.327691C167.333 0.387271 168.662 0.476641 168.662 1.34055V31.3094C168.662 32.2031 167.364 32.2925 166.529 32.3222C166.714 32.6499 166.714 32.6499 166.714 32.6499H173.425C173.425 32.6499 173.425 32.6499 173.61 32.3222C172.806 32.2627 171.477 32.1733 171.477 31.3094V16.9208C171.477 16.9208 175.466 16.891 175.744 16.8612C176.394 19.0954 180.074 30.5348 189.196 39.9485C189.815 39.9783 190 39.9783 190 39.9783ZM171.507 15.7887V1.16181H174.909C177.971 1.16181 180.445 4.43872 180.445 8.46038C180.445 12.482 177.971 15.759 174.909 15.759H171.507V15.7887Z" fill="white"/>
<path d="M163.065 0H157.963C157.963 0 157.963 0 157.777 0.327691C158.581 0.387271 159.911 0.476641 159.911 1.34055V23.981C159.911 27.7048 158.488 30.4753 154.283 30.4753C150.046 30.4753 148.654 27.675 148.654 24.2193V1.37034C148.654 0.476641 149.953 0.387271 150.788 0.357481C150.634 0 150.634 0 150.634 0H143.923C143.923 0 143.923 0 143.737 0.327691C144.541 0.387271 145.871 0.476641 145.871 1.34055V24.2193C145.871 28.8964 147.727 32.6797 153.479 32.6797C158.643 32.6797 161.086 29.3134 161.086 24.2193V1.37034C161.086 0.476641 162.385 0.387271 163.22 0.357481C163.065 0 163.065 0 163.065 0Z" fill="white"/>
<path d="M108.916 21.3893C107.153 29.3134 106.813 31.5775 105.329 31.5775H96.7007V16.9208H100.721C101.649 16.9208 102.051 19.0657 102.082 19.87C102.422 19.6912 102.422 19.6912 102.422 19.6912V13.0183C102.422 13.0183 102.422 13.0183 102.082 12.8395C102.02 13.6141 101.618 15.7887 100.721 15.7887H96.7007V1.16181H104.339C105.823 1.16181 106.133 2.85985 107.71 9.97968L108.266 10.2478L106.442 0H91.9693C91.9693 0 91.9693 0 91.7837 0.327691C92.5877 0.387271 93.9175 0.476641 93.9175 1.34055V31.3094C93.9175 32.2031 92.6187 32.2925 91.7837 32.3222C91.9693 32.6499 91.9693 32.6499 91.9693 32.6499H107.462L109.503 21.0616L108.916 21.3893Z" fill="white"/>
</g>
<defs>
<clipPath id="clip0">
<rect width="190" height="40" fill="white"/>
</clipPath>
</defs>
</svg>
