<svg width="172" height="25" viewBox="0 0 172 25" fill="none" xmlns="http://www.w3.org/2000/svg">
<path d="M0.15 24.09C0.45 24.03 0.99 24 1.74 24C2.01 24 2.55 23.97 2.88 24.06C2.88 22.23 3.63 12.3 3.99 6.96C6.39 12.27 9 17.46 12.03 23.85C12.24 24.33 12.33 24.36 12.57 23.79C15.06 18.48 18.3 12.27 20.85 7.02C21.21 12.66 21.87 22.2 21.87 24.09C22.26 24 22.95 24 23.7 24C24.33 24 24.75 23.97 24.99 24.06C24.6 22.29 23.73 13.56 23.1 6.48L22.68 1.83C22.59 1.11 22.53 0.989999 22.41 0.989999C22.32 0.989999 22.2 1.08 21.87 1.65C20.91 3.51 20.07 5.28 18.48 8.07L12.63 19.65L6 6.6C5.19 5.16 3.69 2.22 3.3 1.5C3.09 1.23 3.03 0.989999 2.91 0.989999C2.82 0.989999 2.79 1.08 2.7 1.44C2.55 2.88 2.43 4.44 2.22 6.15C1.5 13.32 0.48 22.5 0.15 24.09ZM40.5326 17.55C40.5926 17.55 40.6226 17.58 40.6526 17.61C41.4626 19.65 42.9026 22.89 43.2926 24.09C43.6526 24 44.4926 24 45.1826 24C45.5126 24 45.9926 24.03 46.5026 24.06C45.8126 23.04 44.3126 19.77 43.1126 17.04C40.7126 11.91 38.1326 6.12 37.8326 5.52C37.4426 4.65 37.2926 4.44 37.1726 4.44C37.0226 4.44 36.8726 4.71 36.5126 5.52L31.3526 17.94C30.2426 20.49 29.2826 22.74 28.5926 24.09C28.8326 24.06 29.4926 24 30.1226 24C30.7226 24 30.9326 23.97 31.2626 24.06C31.5626 22.89 32.7326 19.8 33.5426 17.61C33.5426 17.58 33.5726 17.55 33.6626 17.55H40.5326ZM34.2326 15.93C34.1426 15.93 34.1426 15.9 34.1726 15.84L36.9326 8.67L39.9926 15.84C39.9926 15.9 39.9626 15.93 39.9026 15.93H34.2326ZM50.4696 16.68C50.4696 19.98 50.3196 23.13 50.2296 24.09C50.5596 24 51.3996 24 51.9096 24C52.3896 24 52.8996 23.97 53.1396 24.06C53.0196 22.89 52.8996 20.22 52.8996 17.01V16.2C52.8996 16.14 52.9296 16.11 53.0196 16.11H56.4696C56.6796 16.11 56.7096 16.17 56.8296 16.29C58.0296 17.82 60.4596 21.36 61.8996 22.8C62.9496 23.88 63.5796 24.18 64.8996 24.18C65.5296 24.18 66.3696 24.12 66.6996 23.97C66.2496 23.76 65.3796 23.1 64.2696 21.9C62.4696 19.98 60.5796 17.46 58.8996 15.3C61.0296 13.86 62.1096 12.06 62.1096 9.9C62.1096 7.98 61.1196 6.51 59.7696 5.7C58.5996 5.01 56.9496 4.77 55.0296 4.77C54.0996 4.77 51.9396 4.89 51.4596 4.89C51.0096 4.89 50.6496 4.92 50.1396 4.83C50.4096 5.7 50.4696 8.55 50.4696 12.18V16.68ZM52.8996 6.54C52.8996 6.45 52.9296 6.39 52.9896 6.36C53.3496 6.27 54.0996 6.24 54.9096 6.24C57.8196 6.24 59.6196 7.83 59.6196 10.56C59.6196 12.36 58.7196 13.62 57.6696 14.34C57.3396 14.55 56.9796 14.64 56.1696 14.64C54.7596 14.64 53.4996 14.55 52.9896 14.43C52.9296 14.43 52.8996 14.37 52.8996 14.25V6.54ZM69.4233 16.68C69.4233 19.95 69.3033 23.22 69.2133 24.09C69.4833 24.06 70.2933 24 70.8933 24C71.3433 24 71.9133 24.03 72.1533 24.06C72.0033 23.34 71.9133 19.86 71.9133 16.68V12.18C71.9133 8.58 72.0033 5.76 72.0933 4.8C71.8833 4.83 71.2233 4.89 70.3833 4.89C69.9933 4.89 69.4233 4.89 69.1533 4.86C69.3333 5.55 69.4233 8.55 69.4233 12.18V16.68ZM79.5314 16.68C79.5314 20.31 79.3814 23.13 79.2914 24.06C79.6214 24.03 80.2814 24 81.0914 24C82.2014 24 84.2114 24.15 87.8414 24.15C88.8314 24.15 89.1314 24.12 89.2214 24.09C89.3114 23.52 89.5514 22.56 89.7614 21.99C88.9514 22.32 87.7814 22.5 85.3514 22.5C84.1814 22.5 83.3714 22.47 82.7414 22.38C82.4714 22.35 82.2614 22.29 82.1714 22.23C82.0214 22.17 81.9914 21.39 81.9914 16.47V14.76C81.9914 14.67 82.0214 14.64 82.0814 14.64C82.5914 14.64 85.6214 14.64 86.5214 14.73C87.5714 14.82 87.9914 14.91 88.3514 15.12C88.3514 14.55 88.4414 13.44 88.5914 12.84C88.2614 12.93 87.6914 12.96 86.2814 13.05C85.5014 13.05 82.5014 13.08 82.0814 13.08C82.0214 13.08 81.9914 13.02 81.9914 12.93V6.57C81.9914 6.51 82.0214 6.48 82.0814 6.48C84.2414 6.48 85.8014 6.54 86.6414 6.57C87.9314 6.69 88.4714 6.81 88.8314 7.02C88.8314 6.09 88.9214 5.19 89.0114 4.74C88.5314 4.86 87.4514 4.89 86.8814 4.89H80.9414C80.3414 4.89 79.5914 4.92 79.2314 4.83C79.4414 5.55 79.5314 8.01 79.5314 12.18V16.68ZM102.191 24.09C102.491 24.03 103.031 24 103.781 24C104.051 24 104.591 23.97 104.921 24.06C104.921 22.23 105.671 12.3 106.031 6.96C108.431 12.27 111.041 17.46 114.071 23.85C114.281 24.33 114.371 24.36 114.611 23.79C117.101 18.48 120.341 12.27 122.891 7.02C123.251 12.66 123.911 22.2 123.911 24.09C124.301 24 124.991 24 125.741 24C126.371 24 126.791 23.97 127.031 24.06C126.641 22.29 125.771 13.56 125.141 6.48L124.721 1.83C124.631 1.11 124.571 0.989999 124.451 0.989999C124.361 0.989999 124.241 1.08 123.911 1.65C122.951 3.51 122.111 5.28 120.521 8.07L114.671 19.65L108.041 6.6C107.231 5.16 105.731 2.22 105.341 1.5C105.131 1.23 105.071 0.989999 104.951 0.989999C104.861 0.989999 104.831 1.08 104.741 1.44C104.591 2.88 104.471 4.44 104.261 6.15C103.541 13.32 102.521 22.5 102.191 24.09ZM133.154 4.83C133.304 5.46 133.454 8.58 133.454 12.18V16.2C133.454 19.92 134.414 21.51 135.674 22.71C137.144 24 139.304 24.42 141.224 24.42C142.994 24.42 145.004 24.18 146.594 22.83C148.814 20.91 149.114 18.09 149.114 15.12V12.18C149.114 8.58 149.234 5.61 149.384 4.8C149.234 4.83 148.634 4.89 148.004 4.89C147.674 4.89 147.194 4.92 146.864 4.83C147.014 5.76 147.164 8.55 147.164 12.18V15.15C147.164 18.15 146.864 19.95 145.574 21.3C144.584 22.35 142.964 22.62 141.794 22.62C140.624 22.62 139.004 22.41 137.804 21.36C136.694 20.4 135.944 19.02 135.944 15.69V12.18C135.944 8.58 136.004 5.61 136.154 4.8C135.824 4.89 135.164 4.89 134.354 4.89C133.904 4.89 133.424 4.92 133.154 4.83ZM155.733 16.68C155.733 19.98 155.583 23.13 155.493 24.09C155.823 24 156.663 24 157.173 24C157.653 24 158.163 23.97 158.403 24.06C158.283 22.89 158.163 20.22 158.163 17.01V16.2C158.163 16.14 158.193 16.11 158.283 16.11H161.733C161.943 16.11 161.973 16.17 162.093 16.29C163.293 17.82 165.723 21.36 167.163 22.8C168.213 23.88 168.843 24.18 170.163 24.18C170.793 24.18 171.633 24.12 171.963 23.97C171.513 23.76 170.643 23.1 169.533 21.9C167.733 19.98 165.843 17.46 164.163 15.3C166.293 13.86 167.373 12.06 167.373 9.9C167.373 7.98 166.383 6.51 165.033 5.7C163.863 5.01 162.213 4.77 160.293 4.77C159.363 4.77 157.203 4.89 156.723 4.89C156.273 4.89 155.913 4.92 155.403 4.83C155.673 5.7 155.733 8.55 155.733 12.18V16.68ZM158.163 6.54C158.163 6.45 158.193 6.39 158.253 6.36C158.613 6.27 159.363 6.24 160.173 6.24C163.083 6.24 164.883 7.83 164.883 10.56C164.883 12.36 163.983 13.62 162.933 14.34C162.603 14.55 162.243 14.64 161.433 14.64C160.023 14.64 158.763 14.55 158.253 14.43C158.193 14.43 158.163 14.37 158.163 14.25V6.54Z" fill="white"/>
</svg>
