<svg width="91" height="24" viewBox="0 0 91 24" fill="none" xmlns="http://www.w3.org/2000/svg">
<path d="M41.6914 19.4328C41.6095 19.6377 41.6095 19.6377 41.6095 19.6377H38.3942C38.3942 19.6377 38.3942 19.6377 38.3123 19.4328C38.7026 19.3999 39.3302 19.3457 39.3302 18.8175V0.820219C39.3302 0.291942 38.7032 0.237798 38.3123 0.204872C38.3942 0 38.3942 0 38.3942 0H41.6095C41.6095 0 41.6095 0 41.6914 0.204872C41.3011 0.237798 40.6735 0.291942 40.6735 0.820219V18.8167C40.6741 19.3458 41.3011 19.3999 41.6914 19.4328ZM12.4567 18.8175V0.820951C12.4567 0.292674 13.0838 0.238529 13.4747 0.205603C13.3921 0 13.3921 0 13.3921 0H11.1122V0.00439011H11.0607L7.06177 16.1373L2.67624 0H0.0831582C0.0831582 0 0.0831582 0 0.00121399 0.204872C0.389083 0.237798 1.00943 0.291942 1.01793 0.809975V18.8175C1.01793 19.3457 0.390904 19.3999 0 19.4328C0.0819443 19.6377 0.0819443 19.6377 0.0819443 19.6377H2.53177C2.53177 19.6377 2.53177 19.6377 2.61372 19.4328C2.22342 19.3999 1.59579 19.3457 1.59579 18.8175V1.19557L6.60713 19.634H6.79591L11.1122 2.22066V18.8167C11.1122 19.345 10.4852 19.3992 10.0943 19.4321C10.1763 19.637 10.1763 19.637 10.1763 19.637H13.3915C13.3915 19.637 13.3915 19.637 13.4735 19.4321C13.0838 19.3999 12.4567 19.3457 12.4567 18.8175ZM66.3445 18.8175V0.820951C66.3445 0.292674 66.9715 0.238529 67.3624 0.205603C67.2805 0.000731684 67.2805 0.000731685 67.2805 0.000731685H65.0006V0.00512179H64.9484L60.9495 16.138L56.5634 0H53.9703C53.9703 0 53.9703 0 53.8884 0.204872C54.2762 0.237798 54.8966 0.291942 54.9051 0.809975V18.8175C54.9051 19.3457 54.2781 19.3999 53.8872 19.4328C53.9691 19.6377 53.9691 19.6377 53.9691 19.6377H56.4189C56.4189 19.6377 56.4189 19.6377 56.5009 19.4328C56.1106 19.3999 55.4829 19.3457 55.4829 18.8175V1.19557L60.4943 19.634H60.6831L64.9994 2.22066V18.8167C64.9994 19.345 64.3724 19.3992 63.9815 19.4321C64.0634 19.637 64.0634 19.637 64.0634 19.637H67.2787C67.2787 19.637 67.2787 19.637 67.3606 19.4321C66.9715 19.3999 66.3445 19.3457 66.3445 18.8175ZM26.3217 19.4292C26.2398 19.634 26.2398 19.634 26.2398 19.634H22.9644C22.9644 19.634 22.9644 19.634 22.8825 19.4292C23.2679 19.3962 24.0018 19.3326 23.9028 18.8321L22.2876 12.0845H17.9173L16.2492 18.8138C16.1212 19.3297 16.8763 19.3962 17.2672 19.4292C17.1852 19.634 17.1852 19.634 17.1852 19.634H14.7123C14.7123 19.634 14.7123 19.634 14.6304 19.4292C15.0207 19.3962 15.5111 19.3677 15.6483 18.8138H15.6489L19.8463 1.88189L19.3947 0H20.8011L25.308 18.8277C25.4446 19.3699 25.9351 19.3962 26.3217 19.4292ZM22.1213 11.3901L20.1401 3.11478L18.089 11.3901H22.1213ZM36.5629 19.4292C36.481 19.634 36.481 19.634 36.481 19.634H33.4697C33.4697 19.634 33.4697 19.634 33.3877 19.4292C33.7701 19.397 34.5271 19.3377 34.4117 18.8438L31.7604 10.1338C31.6171 10.1536 29.6911 10.1646 29.6911 10.1646V18.8175C29.6911 19.3457 30.3182 19.3999 30.7091 19.4328C30.6271 19.6377 30.6271 19.6377 30.6271 19.6377H27.4119C27.4119 19.6377 27.4119 19.6377 27.3299 19.4328C27.7202 19.3999 28.3479 19.3457 28.3479 18.8175V0.820219C28.3479 0.291942 27.7208 0.237798 27.3299 0.204872C27.4119 0 27.4119 0 27.4119 0H31.3246C33.5334 0 35.3222 2.27481 35.3222 5.08228C35.3222 7.22539 34.2794 9.05607 32.8038 9.80385L35.548 18.8211C35.7271 19.3962 36.1738 19.3962 36.5629 19.4292ZM31.3246 9.4702C32.7904 9.4702 33.9783 7.50489 33.9783 5.08228C33.9783 2.65894 32.7898 0.694369 31.3246 0.694369H29.6911V9.4702H31.3246ZM90.6267 23.9993C86.2472 18.3455 84.4845 11.4743 84.1713 10.136C84.0341 10.1543 82.1197 10.1638 82.1197 10.1638V18.8167C82.1197 19.345 82.7467 19.3992 83.1376 19.4321C83.0557 19.637 83.0557 19.637 83.0557 19.637H79.8404C79.8404 19.637 79.8404 19.637 79.7585 19.4321C80.1488 19.3992 80.7764 19.345 80.7764 18.8167V0.820219C80.7764 0.291942 80.1494 0.237798 79.7585 0.204872C79.8404 0 79.8404 0 79.8404 0H83.7531C85.962 0 87.7508 2.27481 87.7508 5.08228C87.7508 7.2371 86.6964 9.07655 85.2075 9.81629C87.3501 19.5477 91 24 91 24C91 24 90.9114 23.9993 90.6267 23.9993ZM83.7531 9.4702C85.219 9.4702 86.4069 7.50489 86.4069 5.08228C86.4069 2.65894 85.2184 0.694369 83.7531 0.694369H82.1197V0.820951V9.4702H83.7531ZM78.3241 0H75.8743C75.8743 0 75.8743 0 75.7924 0.204872C76.1827 0.237798 76.8103 0.291942 76.8103 0.820219V14.4018C76.8103 16.6319 76.125 18.3075 74.1146 18.3075C72.0794 18.3075 71.4208 16.6268 71.4208 14.5539C71.4208 14.5525 71.4208 14.5525 71.4208 14.5503V0.820219H71.425C71.425 0.291942 72.0521 0.237798 72.443 0.204872C72.361 0 72.361 0 72.361 0H69.1458C69.1458 0 69.1458 0 69.0638 0.204872C69.4541 0.237798 70.0818 0.291942 70.0818 0.820219H70.086V14.5503C70.086 14.5518 70.086 14.5518 70.086 14.5539C70.086 17.3614 70.9807 19.634 73.7383 19.6377C76.2142 19.6414 77.3888 17.6204 77.3888 14.5539V0.820219C77.3888 0.291942 78.0158 0.237798 78.4067 0.204872C78.3241 0 78.3241 0 78.3241 0ZM52.2197 12.8323C51.3705 17.5941 51.2067 18.9404 50.4947 18.9404H46.3525V10.1638H48.2809V10.1653C48.7192 10.1653 48.9128 11.4575 48.9401 11.9287C49.1101 11.8299 49.1101 11.8299 49.1101 11.8299V10.1638V9.46947V7.80342C49.1101 7.80342 49.1101 7.80342 48.9401 7.70464C48.9128 8.17512 48.7192 9.468 48.2809 9.468V9.46947H46.3525V0.694369H50.0097C50.7217 0.694369 50.8722 1.70995 51.6225 5.99543L51.8871 6.14981L51.0264 0H44.083C44.083 0 44.083 0 44.001 0.204872C44.3913 0.237798 45.019 0.291942 45.019 0.820219V18.8131C45.019 19.3414 44.3919 19.3955 44.001 19.4284C44.083 19.6333 44.083 19.6333 44.083 19.6333H51.5114L52.485 12.6772L52.2197 12.8323Z" fill="white"/>
</svg>
