<svg width="127" height="28" viewBox="0 0 127 28" fill="none" xmlns="http://www.w3.org/2000/svg">
<path d="M58.1847 22.6716C58.0704 22.9106 58.0704 22.9106 58.0704 22.9106H53.5831C53.5831 22.9106 53.5831 22.9106 53.4688 22.6716C54.0135 22.6332 54.8894 22.57 54.8894 21.9537V0.956922C54.8894 0.340599 54.0143 0.277431 53.4688 0.239017C53.5831 0 53.5831 0 53.5831 0H58.0704C58.0704 0 58.0704 0 58.1847 0.239017C57.64 0.277431 56.7641 0.340599 56.7641 0.956922V21.9529C56.7649 22.57 57.64 22.6332 58.1847 22.6716ZM17.3847 21.9537V0.957776C17.3847 0.341453 18.2598 0.278284 18.8053 0.239871C18.6901 0 18.6901 0 18.6901 0H15.5083V0.00512179H15.4363L9.85544 18.8269L3.73497 0H0.116056C0.116056 0 0.116056 0 0.00169425 0.239017C0.543007 0.277431 1.40877 0.340599 1.42063 0.944971V21.9537C1.42063 22.57 0.545548 22.6332 0 22.6716C0.114362 22.9106 0.114362 22.9106 0.114362 22.9106H3.53335C3.53335 22.9106 3.53336 22.9106 3.64772 22.6716C3.10302 22.6332 2.22709 22.57 2.22709 21.9537V1.39484L9.22095 22.9064H9.4844L15.5083 2.59077V21.9529C15.5083 22.5692 14.6332 22.6324 14.0877 22.6708C14.202 22.9098 14.202 22.9098 14.202 22.9098H18.6893C18.6893 22.9098 18.6893 22.9098 18.8036 22.6708C18.2598 22.6332 17.3847 22.57 17.3847 21.9537ZM92.5907 21.9537V0.957776C92.5907 0.341453 93.4658 0.278284 94.0113 0.239871C93.8969 0.000853632 93.8969 0.000853632 93.8969 0.000853632H90.7151V0.00597543H90.6423L85.0614 18.8277L78.9401 0H75.3212C75.3212 0 75.3212 0 75.2068 0.239017C75.7481 0.277431 76.6139 0.340599 76.6258 0.944971V21.9537C76.6258 22.57 75.7507 22.6332 75.2051 22.6716C75.3195 22.9106 75.3195 22.9106 75.3195 22.9106H78.7385C78.7385 22.9106 78.7385 22.9106 78.8529 22.6716C78.3082 22.6332 77.4322 22.57 77.4322 21.9537V1.39484L84.4261 22.9064H84.6895L90.7134 2.59077V21.9529C90.7134 22.5692 89.8384 22.6324 89.2928 22.6708C89.4072 22.9098 89.4072 22.9098 89.4072 22.9098H93.8944C93.8944 22.9098 93.8944 22.9098 94.0088 22.6708C93.4658 22.6332 92.5907 22.57 92.5907 21.9537ZM36.7347 22.6674C36.6203 22.9064 36.6203 22.9064 36.6203 22.9064H32.0492C32.0492 22.9064 32.0492 22.9064 31.9349 22.6674C32.4728 22.6289 33.497 22.5547 33.3589 21.9708L31.1047 14.0986H25.0054L22.6775 21.9495C22.4988 22.5513 23.5526 22.6289 24.0981 22.6674C23.9838 22.9064 23.9838 22.9064 23.9838 22.9064H20.5326C20.5326 22.9064 20.5326 22.9064 20.4182 22.6674C20.9629 22.6289 21.6474 22.5957 21.8389 21.9495H21.8397L27.6976 2.19554L27.0673 0H29.0301L35.32 21.9657C35.5106 22.5982 36.1951 22.6289 36.7347 22.6674ZM30.8726 13.2885L28.1076 3.63391L25.2451 13.2885H30.8726ZM51.0274 22.6674C50.913 22.9064 50.913 22.9064 50.913 22.9064H46.7104C46.7104 22.9064 46.7104 22.9064 46.5961 22.6674C47.1298 22.6298 48.1861 22.5607 48.0252 21.9845L44.3249 11.8228C44.125 11.8459 41.4371 11.8587 41.4371 11.8587V21.9537C41.4371 22.57 42.3122 22.6332 42.8577 22.6716C42.7433 22.9106 42.7433 22.9106 42.7433 22.9106H38.2561C38.2561 22.9106 38.2561 22.9106 38.1418 22.6716C38.6865 22.6332 39.5624 22.57 39.5624 21.9537V0.956922C39.5624 0.340599 38.6873 0.277431 38.1418 0.239017C38.2561 0 38.2561 0 38.2561 0H43.7167C46.7994 0 49.2958 2.65394 49.2958 5.92933C49.2958 8.42962 47.8405 10.5654 45.7811 11.4378L49.611 21.958C49.8609 22.6289 50.4844 22.6289 51.0274 22.6674ZM43.7167 11.0486C45.7625 11.0486 47.4203 8.75571 47.4203 5.92933C47.4203 3.1021 45.7616 0.810097 43.7167 0.810097H41.4371V11.0486H43.7167ZM126.479 27.9991C120.367 21.4031 117.907 13.3867 117.47 11.8254C117.278 11.8467 114.607 11.8578 114.607 11.8578V21.9529C114.607 22.5692 115.482 22.6324 116.027 22.6708C115.913 22.9098 115.913 22.9098 115.913 22.9098H111.426C111.426 22.9098 111.426 22.9098 111.311 22.6708C111.856 22.6324 112.732 22.5692 112.732 21.9529V0.956922C112.732 0.340599 111.857 0.277431 111.311 0.239017C111.426 0 111.426 0 111.426 0H116.886C119.969 0 122.465 2.65394 122.465 5.92933C122.465 8.44328 120.994 10.5893 118.916 11.4523C121.906 22.8056 127 28 127 28C127 28 126.876 27.9991 126.479 27.9991ZM116.886 11.0486C118.932 11.0486 120.59 8.75571 120.59 5.92933C120.59 3.1021 118.931 0.810097 116.886 0.810097H114.607V0.957776V11.0486H116.886ZM109.31 0H105.891C105.891 0 105.891 0 105.776 0.239017C106.321 0.277431 107.197 0.340599 107.197 0.956922V16.802C107.197 19.4039 106.24 21.3587 103.435 21.3587C100.594 21.3587 99.6752 19.3979 99.6752 16.9796C99.6752 16.9779 99.6752 16.9779 99.6752 16.9753V0.956922H99.6811C99.6811 0.340599 100.556 0.277431 101.102 0.239017C100.987 0 100.987 0 100.987 0H96.5002C96.5002 0 96.5002 0 96.3858 0.239017C96.9305 0.277431 97.8064 0.340599 97.8064 0.956922H97.8123V16.9753C97.8123 16.977 97.8123 16.977 97.8123 16.9796C97.8123 20.255 99.061 22.9064 102.91 22.9106C106.365 22.9149 108.004 20.5572 108.004 16.9796V0.956922C108.004 0.340599 108.879 0.277431 109.425 0.239017C109.31 0 109.31 0 109.31 0ZM72.8781 14.971C71.693 20.5264 71.4642 22.0971 70.4706 22.0971H64.6898V11.8578H67.3811V11.8595C67.9927 11.8595 68.263 13.367 68.3011 13.9168C68.5383 13.8015 68.5383 13.8015 68.5383 13.8015V11.8578V11.0477V9.10399C68.5383 9.10399 68.5383 9.10399 68.3011 8.98875C68.263 9.53764 67.9927 11.046 67.3811 11.046V11.0477H64.6898V0.810097H69.7937C70.7874 0.810097 70.9975 1.99494 72.0445 6.99466L72.4139 7.17478L71.2126 0H61.5224C61.5224 0 61.5224 0 61.408 0.239017C61.9527 0.277431 62.8287 0.340599 62.8287 0.956922V21.9486C62.8287 22.5649 61.9536 22.6281 61.408 22.6665C61.5224 22.9055 61.5224 22.9055 61.5224 22.9055H71.8895L73.2483 14.79L72.8781 14.971Z" fill="white"/>
</svg>
