<svg width="24" height="24" viewBox="0 0 24 24" fill="none" xmlns="http://www.w3.org/2000/svg">
    <path d="M6.32377 15.9913C6.57919 16.2024 6.95739 16.1664 7.1685 15.911C7.3796 15.6556 7.34367 15.2774 7.08825 15.0663L6.32377 15.9913ZM18.3531 11.4064H17.7531H18.3531ZM10.2353 9.88227L9.96696 9.34561L10.2353 9.88227ZM7.08825 15.0663C6.60659 14.6682 6.21192 13.9393 6.0345 13.0039C5.85906 12.0791 5.90939 11.0135 6.25115 10.0086C6.59135 9.0084 7.21693 8.07639 8.18963 7.39207C9.16126 6.70849 10.5151 6.24697 12.3529 6.24697V5.04697C10.3084 5.04697 8.70367 5.5632 7.49915 6.41062C6.2957 7.25728 5.52754 8.40951 5.11507 9.62224C4.70416 10.8304 4.64287 12.1065 4.85552 13.2276C5.06619 14.3382 5.55931 15.3594 6.32377 15.9913L7.08825 15.0663ZM12.3529 6.24697C15.2639 6.24697 17.7531 8.15821 17.7531 11.4064H18.9531C18.9531 7.37103 15.7949 5.04697 12.3529 5.04697V6.24697ZM17.7531 11.4064C17.7531 13.0591 17.2567 14.5802 16.457 15.6737C15.6589 16.7651 14.5882 17.3994 13.4118 17.3994V18.5994C15.0589 18.5994 16.4589 17.7039 17.4256 16.3821C18.3906 15.0625 18.9531 13.2872 18.9531 11.4064H17.7531ZM13.4118 17.3994C11.617 17.3994 10.4934 15.9536 10.0409 14.1499C9.81908 13.2657 9.78351 12.3646 9.90391 11.6497C10.0318 10.8901 10.2994 10.521 10.5036 10.4189L9.96696 9.34561C9.22421 9.71699 8.86392 10.5993 8.72058 11.4504C8.5697 12.3463 8.61943 13.4153 8.87699 14.4419C9.3833 16.4601 10.7949 18.5994 13.4118 18.5994V17.3994ZM10.5036 10.4189C10.633 10.3542 10.8437 10.3761 10.9368 10.4828C11.0304 10.5902 11.2622 11.0677 10.7317 12.4964L11.8566 12.9141C12.4121 11.4183 12.4039 10.3396 11.8413 9.69426C11.2782 9.04826 10.4165 9.12084 9.96696 9.34561L10.5036 10.4189ZM10.7317 12.4964C9.64113 15.4332 7.89023 20.9798 7.53039 22.4444L8.69573 22.7308C9.04079 21.3263 10.7752 15.8262 11.8566 12.9141L10.7317 12.4964Z" fill="black"/>
    <circle cx="12" cy="12" r="11.4" stroke="black" stroke-width="1.2"/>
</svg>
