<svg width="61" height="21" viewBox="0 0 61 21" fill="none" xmlns="http://www.w3.org/2000/svg">
<path d="M32.2839 11.5272C32.9498 11.5272 33.6092 11.3923 34.2245 11.1302C34.8397 10.8681 35.3987 10.4839 35.8696 9.99959C36.3405 9.51526 36.714 8.94027 36.9689 8.30747C37.2237 7.67466 37.3549 6.99642 37.3549 6.31148C37.3549 5.62653 37.2237 4.94829 36.9689 4.31549C36.714 3.68268 36.3405 3.1077 35.8696 2.62337C35.3987 2.13904 34.8397 1.75485 34.2245 1.49273C33.6092 1.23061 32.9498 1.0957 32.2839 1.0957C30.939 1.0957 29.6491 1.64522 28.6982 2.62337C27.7472 3.60152 27.2129 4.92817 27.2129 6.31148C27.2129 7.69479 27.7472 9.02144 28.6982 9.99959C29.6491 10.9777 30.939 11.5272 32.2839 11.5272Z" fill="#BDBDBD"/>
<path d="M2.93226 1.39755H0.203125V11.2269H2.93226C4.39592 11.2269 5.46775 10.8255 6.34596 10.1245C6.8924 9.66075 7.3328 9.07889 7.63584 8.42027C7.93888 7.76165 8.09712 7.04245 8.09931 6.3138C8.10083 3.40168 6.05475 1.39598 2.93226 1.39598V1.39755ZM5.17502 8.82132C4.58955 9.32314 3.81046 9.62423 2.63952 9.62423H2.05405V3.10373H2.54194C3.71288 3.10373 4.4935 3.30446 5.07744 3.90507C5.76049 4.50725 6.1508 5.41053 6.1508 6.31223C6.19044 6.77982 6.1228 7.25046 5.95332 7.68625C5.78384 8.12205 5.51725 8.51084 5.17502 8.82132ZM10.83 1.39755H8.97751V11.2269H10.83V1.39755ZM15.5137 5.2098C14.3428 4.80834 14.05 4.50725 14.05 4.00543C14.05 3.40325 14.6355 2.903 15.4161 2.903C16.0016 2.903 16.4895 3.10373 16.9758 3.70434L17.9516 2.40118C17.1725 1.6888 16.1659 1.29588 15.1234 1.29718C13.4661 1.29718 12.1 2.50155 12.1 4.1058C12.1 5.51089 12.6855 6.11307 14.4403 6.81405C15.221 7.11514 15.5137 7.2155 15.7089 7.41623C15.8882 7.51012 16.0382 7.65404 16.1418 7.83154C16.2453 8.00903 16.2982 8.21291 16.2943 8.41987C16.2943 9.22121 15.7089 9.82339 14.8307 9.82339C13.954 9.82339 13.1734 9.32157 12.783 8.51866L11.6136 9.72303C12.4903 11.0262 13.5637 11.6284 14.9282 11.6284C16.8798 11.6284 18.2444 10.3252 18.2444 8.4183C18.2444 6.71369 17.6589 6.01114 15.5137 5.2098ZM18.8283 6.31223C18.8283 9.22121 21.0711 11.4276 23.8993 11.4276C24.6799 11.4276 25.363 11.2269 26.2396 10.8255V8.52023C25.459 9.32157 24.776 9.62266 23.9969 9.62266C22.1444 9.62266 20.7799 8.21914 20.7799 6.21187C20.7799 4.30653 22.1444 2.80264 23.8993 2.80264C24.7775 2.80264 25.459 3.10373 26.2396 3.90507V1.59984C25.459 1.19525 24.776 0.996094 23.8993 0.996094C21.1686 1.19682 18.8283 3.50518 18.8283 6.31223ZM41.5502 8.01841L39.0147 1.39755H36.9671L40.9647 11.528H42.0366L46.2294 1.39755H44.1818L41.5517 8.01841H41.5502ZM47.01 11.2269H52.3737V9.62266H48.9616V6.91441H52.2761V5.2098H48.9616V3.10373H52.3737V1.39755H47.01V11.2269ZM57.6399 7.11514C59.1035 6.81405 59.8826 5.81198 59.8826 4.30809C59.8826 2.50155 58.6157 1.39755 56.4705 1.39755H53.6422V11.2269H55.4947V7.31587H55.7874L58.4205 11.2269H60.6633L57.6399 7.11514ZM56.0802 5.91078H55.4947V2.903H56.0802C57.2511 2.903 57.9326 3.40482 57.9326 4.40846C57.9326 5.41053 57.2511 5.91078 56.0802 5.91078Z" fill="black"/>
<path d="M57.6383 7.11603C59.102 6.81494 59.8811 5.81287 59.8811 4.30898C59.8811 2.50244 58.6141 1.39844 56.4689 1.39844H53.6406V11.2278H55.4931V7.31676H55.7858L58.4189 11.2278H60.6617L57.6383 7.11603ZM56.0786 5.91167H55.4931V2.90389H56.0786C57.2495 2.90389 57.931 3.40571 57.931 4.40935C57.931 5.41142 57.2495 5.91167 56.0786 5.91167Z" fill="black"/>
<path d="M13.9551 20.3548V14.8379L17.66 18.7489V15.1405H18.4406V20.6558L14.7357 16.7448V20.3563H13.9551V20.3548ZM22.3392 15.9403H20.2915V17.1447H22.2431V17.9476H20.2915V19.6522H22.3392V20.3548H19.5109V15.139H22.3392V15.9403ZM24.7786 15.9403V20.3548H23.9995V15.9403H22.8286V15.2393H25.9495V15.9403H24.7786ZM27.1189 15.2393L28.3875 18.7489L29.752 15.0386L31.0205 18.7489L32.3851 15.2393H33.3609L31.1181 20.7546L29.8496 17.0443L28.485 20.7546L26.3398 15.2393H27.1189ZM33.4569 17.7469C33.4649 17.0311 33.7448 16.347 34.2369 15.8409C34.729 15.3347 35.3941 15.0468 36.09 15.0386C36.7859 15.0468 37.451 15.3347 37.9431 15.8409C38.4352 16.347 38.7152 17.0311 38.7231 17.7469C38.7152 18.4626 38.4352 19.1467 37.9431 19.6529C37.451 20.159 36.7859 20.447 36.09 20.4551C35.407 20.4551 34.8215 20.2544 34.3336 19.7526C33.7497 19.2508 33.4569 18.6486 33.4569 17.7453V17.7469ZM34.236 17.7469C34.236 18.3475 34.4312 18.7505 34.8215 19.1504C35.2118 19.5518 35.6021 19.7526 36.09 19.7526C36.5779 19.7526 37.0658 19.5518 37.4546 19.1504C37.8449 18.7489 38.0401 18.3475 38.0401 17.7469C38.0401 17.1447 37.8449 16.7432 37.4546 16.3418C37.0643 15.9403 36.674 15.7412 36.09 15.7412C35.6021 15.7412 35.1142 15.9403 34.7239 16.3418C34.4312 16.7432 34.236 17.245 34.236 17.7469ZM41.4538 18.1483L43.0135 20.3548H42.0377L40.5771 18.2455H40.4795V20.3532H39.7004V15.139H40.5771C41.2601 15.139 41.748 15.2393 42.0407 15.5404C42.332 15.84 42.5286 16.2414 42.5286 16.6429C42.5286 17.0443 42.4295 17.3454 42.2344 17.5461C42.0407 17.9476 41.7465 18.1483 41.4553 18.1483H41.4538ZM40.478 17.5461H40.6731C41.3562 17.5461 41.7465 17.245 41.7465 16.7432C41.7465 16.2414 41.3562 15.9403 40.6731 15.9403H40.3804V17.5461H40.478ZM44.4771 17.245L46.4272 15.139H47.403L45.1587 17.4442L47.403 20.2544H46.4272L44.5747 17.9476L44.3796 18.1483V20.2544H43.5989V15.0386H44.3796V17.245H44.4771Z" fill="#858585"/>
</svg>
