<svg width="34" height="22" viewBox="0 0 34 22" fill="none" xmlns="http://www.w3.org/2000/svg">
<path d="M20.2224 11.5062C20.2241 12.8724 19.9638 14.2255 19.4565 15.4881C18.9492 16.7506 18.2049 17.8978 17.2661 18.8638C16.3274 19.8299 15.2127 20.5959 13.9858 21.1179C12.759 21.64 11.4441 21.9078 10.1165 21.9062C4.55391 21.905 0.0117188 17.2318 0.0117188 11.5062C0.0117188 5.78177 4.49973 1.10742 10.0635 1.10742C15.7344 1.10742 20.2224 5.78177 20.2224 11.5062Z" fill="black"/>
<path d="M33.8473 11.4506C33.8473 17.2041 29.3322 21.9052 23.6883 21.9052C18.0975 21.9052 13.5293 17.2041 13.5293 11.4506C13.5293 5.69832 18.0444 0.996094 23.6341 0.996094C29.3322 0.996094 33.8473 5.69832 33.8473 11.4506Z" fill="#858585"/>
<path d="M20.2482 11.5062C20.2482 10.7314 20.1409 10.0124 20.0337 9.29333H13.7972C13.8514 8.90651 13.9586 8.57429 14.067 8.18747H19.6567C19.5461 7.80625 19.4021 7.43612 19.2266 7.08161H14.497C14.6573 6.69363 14.8729 6.36141 15.0874 5.97459H18.6882C18.4683 5.57116 18.1977 5.19933 17.8834 4.86873H15.8945C16.2162 4.48075 16.539 4.14853 16.9149 3.81747C15.1879 2.15171 12.8513 1.16202 10.2969 1.10742V21.8992C12.8705 21.8574 15.1754 20.8189 16.9691 19.188C17.345 18.8569 17.6678 18.4689 17.9906 18.0821H15.8945C15.6258 17.7499 15.356 17.3619 15.1416 17.0309H18.7424C18.9711 16.6811 19.1691 16.311 19.3339 15.925H14.5501C14.375 15.5701 14.2314 15.1995 14.1212 14.818H19.7109C20.0326 13.7748 20.2482 12.669 20.2482 11.5074V11.5062Z" fill="black"/>
<path d="M13.7428 14.1057L13.9042 13.1648C13.85 13.1648 13.7428 13.2206 13.6355 13.2206C13.2596 13.2206 13.2055 12.9999 13.2596 12.8895L13.5813 10.9531H14.1728L14.3342 9.90185H13.7969L13.9042 9.23857H12.8296C12.8296 9.23857 12.1839 12.8895 12.1839 13.3321C12.1839 13.9942 12.5609 14.2718 13.044 14.2718C13.3669 14.2718 13.6355 14.1615 13.7439 14.1057H13.7428ZM14.1175 12.3354C14.1175 13.885 15.1391 14.2718 15.9992 14.2718C16.8051 14.2718 17.128 14.1057 17.128 14.1057L17.3424 13.0545C17.3424 13.0545 16.7509 13.3321 16.2137 13.3321C15.0318 13.3321 15.2463 12.447 15.2463 12.447H17.4497C17.4497 12.447 17.6111 11.7267 17.6111 11.4514C17.6111 10.7312 17.2352 9.84725 16.0534 9.84725C14.9246 9.73574 14.1175 10.9531 14.1175 12.3354ZM15.9992 10.7324C16.5895 10.7324 16.4823 11.4514 16.4823 11.506H15.3005C15.3005 11.4514 15.4077 10.7312 15.9992 10.7312V10.7324ZM22.826 14.1057L23.0405 12.8895C23.0405 12.8895 22.5032 13.166 22.1262 13.166C21.3744 13.166 21.0516 12.5573 21.0516 11.8929C21.0516 10.5663 21.6972 9.84609 22.4501 9.84609C22.9874 9.84609 23.4175 10.1783 23.4175 10.1783L23.5789 9.0167C23.5789 9.0167 22.9333 8.74023 22.3418 8.74023C21.1058 8.74023 19.8698 9.84609 19.8698 11.9486C19.8698 13.3309 20.5143 14.2718 21.8045 14.2718C22.2345 14.2718 22.826 14.1057 22.826 14.1057ZM7.82911 9.73574C7.07621 9.73574 6.53892 9.95645 6.53892 9.95645L6.3775 10.8974C6.3775 10.8974 6.86175 10.6766 7.56046 10.6766C7.93634 10.6766 8.25917 10.7312 8.25917 11.0635C8.25917 11.2842 8.20499 11.3399 8.20499 11.3399H7.72074C6.80756 11.3399 5.78602 11.7279 5.78602 12.9999C5.78602 13.9954 6.43168 14.2161 6.80756 14.2161C7.56046 14.2161 7.88216 13.7189 7.93634 13.7189L7.88216 14.1603H8.84952L9.27958 11.1192C9.27958 9.7915 8.20499 9.7369 7.82911 9.7369V9.73574ZM8.04357 12.2251C8.04357 12.3912 7.93634 13.2763 7.29181 13.2763C6.96898 13.2763 6.86175 12.9999 6.86175 12.8338C6.86175 12.5573 7.02203 12.1705 7.82911 12.1705C7.99052 12.2251 8.04357 12.2251 8.04357 12.2251ZM10.3034 14.2161C10.572 14.2161 11.9153 14.2718 11.9153 12.778C11.9153 11.3957 10.6251 11.6722 10.6251 11.1192C10.6251 10.8428 10.8396 10.7312 11.2166 10.7312C11.378 10.7312 11.9695 10.787 11.9695 10.787L12.1309 9.7915C12.1309 9.7915 11.7539 9.68114 11.1093 9.68114C10.3034 9.68114 9.49631 10.0122 9.49631 11.1192C9.49631 12.3912 10.8396 12.2808 10.8396 12.778C10.8396 13.1102 10.4648 13.166 10.1961 13.166C9.71078 13.166 9.22766 12.9999 9.22766 12.9999L9.06624 13.9954C9.12043 14.1057 9.38907 14.2161 10.3034 14.2161ZM31.7501 8.85059L31.5357 10.3444C31.5357 10.3444 31.1045 9.7915 30.513 9.7915C29.5456 9.7915 28.6855 11.0077 28.6855 12.447C28.6855 13.3309 29.1156 14.2718 30.0287 14.2718C30.6744 14.2718 31.0514 13.8293 31.0514 13.8293L30.9972 14.2161H32.0718L32.8789 8.90635L31.7501 8.85059ZM31.2659 11.7825C31.2659 12.3912 30.9972 13.1648 30.4057 13.1648C30.0299 13.1648 29.8143 12.8338 29.8143 12.2808C29.8143 11.3957 30.1913 10.8428 30.6744 10.8428C31.0514 10.8428 31.2659 11.1192 31.2659 11.7837V11.7825ZM1.97076 14.1615L2.61529 10.1783L2.72253 14.1615H3.47542L4.87284 10.1783L4.28136 14.1615H5.41014L6.27027 8.85059H4.49696L3.42237 12.1147L3.36818 8.85059H1.80935L0.949219 14.1615H1.97076ZM18.6337 14.1615C18.9566 12.3354 19.0096 10.8428 19.7625 11.1181C19.8698 10.4002 20.0312 10.1237 20.1384 9.84725H19.9239C19.4397 9.84725 19.0638 10.5094 19.0638 10.5094L19.171 9.90185H18.1495L17.4508 14.2161H18.6349V14.1615H18.6337ZM25.298 9.73574C24.5463 9.73574 24.0078 9.95645 24.0078 9.95645L23.8476 10.8974C23.8476 10.8974 24.3307 10.6766 25.0294 10.6766C25.4064 10.6766 25.7292 10.7312 25.7292 11.0635C25.7292 11.2842 25.675 11.3399 25.675 11.3399H25.1908C24.2765 11.3399 23.2561 11.7279 23.2561 12.9999C23.2561 13.9954 23.9006 14.2161 24.2776 14.2161C25.0294 14.2161 25.3522 13.7189 25.4064 13.7189L25.3522 14.1603H26.3196L26.7496 11.1192C26.8038 9.7915 25.675 9.7369 25.298 9.7369V9.73574ZM25.5667 12.2251C25.5667 12.3912 25.4595 13.2763 24.8149 13.2763C24.4921 13.2763 24.3849 12.9999 24.3849 12.8338C24.3849 12.5573 24.5463 12.1705 25.3522 12.1705C25.5136 12.2251 25.5136 12.2251 25.5667 12.2251ZM27.6639 14.1615C27.9868 12.3354 28.0398 10.8428 28.7927 11.1181C28.9 10.4002 29.0614 10.1237 29.1686 9.84725H28.9541C28.4699 9.84725 28.094 10.5094 28.094 10.5094L28.2012 9.90185H27.1797L26.481 14.2161H27.6651V14.1615H27.6639Z" fill="#141414"/>
</svg>
