<svg width="57" height="22" viewBox="0 0 57 22" fill="none" xmlns="http://www.w3.org/2000/svg">
<path d="M4.95117 6.10331H6.91669L5.93453 3.45703L4.95117 6.10331Z" fill="black"/>
<path d="M48.4703 0.998047V2.13271L47.9339 0.998047H43.7335V2.13271L43.1983 0.998047H37.4782C36.496 0.998047 35.6903 1.18716 34.9775 1.56538V0.998047H30.9547V1.56538C30.5077 1.18716 29.9725 0.998047 29.2573 0.998047H14.8694L13.8872 3.36194L12.9038 0.998047H8.34584V2.13271L7.80946 0.998047H3.96784L2.1787 5.44088L0.125 10.3565H4.6818L5.21818 8.8436H6.46973L7.0061 10.3565H12.1887V9.22182L12.6357 10.3565H15.2269L15.6739 9.22182V10.3565H28.0952V7.89805H28.274C28.4528 7.89805 28.4528 7.89805 28.4528 8.18171V10.2619H34.8869V9.6946C35.4233 9.97827 36.2278 10.2619 37.2994 10.2619H39.9813L40.5165 8.74905H41.768L42.3044 10.2619H47.487V8.8436L48.2915 10.2619H52.4919V0.998047H48.4703ZM18.2652 8.93816H16.7479V3.74016L14.6024 8.93816H13.2614L11.1171 3.74016V8.93816H8.07765L7.45309 7.51982H4.41361L3.87844 9.03271H2.1787L4.86059 2.32182H7.0955L9.59618 8.65449V2.32182H12.0099L13.9766 6.85794L15.7633 2.32182H18.2652V8.93816ZM24.3418 3.74016H20.8565V4.9681H24.2524V6.29188H20.8577V7.61438H24.3418V9.03271H19.338V2.32182H24.3418V3.74016ZM31.0441 6.48099C31.2229 6.85921 31.3123 7.14288 31.3123 7.70894V9.03271H29.7949V8.18171C29.7949 7.80349 29.7949 7.23616 29.5267 6.85921C29.2586 6.57555 28.9904 6.57555 28.454 6.57555H26.8461V9.03271H25.3251V2.32182H28.721C29.5255 2.32182 30.0619 2.32182 30.5089 2.60549C30.9559 2.88916 31.2229 3.36194 31.2229 4.1171C31.2229 5.15721 30.5983 5.72455 30.1513 5.91366C30.5983 6.00821 30.8653 6.29188 31.0453 6.48099H31.0441ZM33.726 8.93816H32.2062V2.22727H33.726V8.93816ZM51.3298 8.93816H49.1855L46.326 3.92927V8.93816H43.2877L42.7514 7.51982H39.6225L39.0873 9.03271H37.3888C36.6748 9.03271 35.7809 8.8436 35.2445 8.27627C34.7081 7.70894 34.4399 6.95377 34.4399 5.72455C34.4399 4.77899 34.6187 3.83344 35.2445 3.07827C35.6915 2.51094 36.496 2.32182 37.4794 2.32182H38.9085V3.74016H37.4782C36.943 3.74016 36.6748 3.83471 36.3172 4.1171C36.0491 4.40077 35.8703 4.9681 35.8703 5.62999C35.8703 6.38644 35.9597 6.85921 36.3172 7.23744C36.5854 7.5211 36.943 7.61438 37.3888 7.61438H38.0146L40.0707 2.41638H42.3044L44.8063 8.74905V2.41638H47.0412L49.6325 7.04833V2.41638H51.151V8.93816H51.3298Z" fill="black"/>
<path d="M40.1613 6.10136H42.215L41.2328 3.45508L40.1601 6.10136H40.1613ZM24.9688 19.7122V14.3251L22.6445 16.9689L24.9688 19.711V19.7122ZM15.4082 14.9857V16.215H18.7134V17.5387H15.4082V18.9571H19.0722L20.7708 16.9714L19.1616 14.9857H15.4082ZM28.3646 14.9857H26.4861V16.6877H28.4516C28.988 16.6877 29.3456 16.4041 29.3456 15.8367C29.2562 15.2694 28.8986 14.9857 28.3634 14.9857H28.3646Z" fill="black"/>
<path d="M55.9778 16.5936V12.3398H52.2231C51.4198 12.3398 50.794 12.529 50.347 12.9072V12.3398H46.2372C45.6114 12.3398 44.8069 12.529 44.4493 12.9072V12.3398H37.2106V12.9072C36.6754 12.4344 35.6921 12.3398 35.2451 12.3398H30.4201V12.9072C29.9731 12.4344 28.9004 12.3398 28.364 12.3398H23.0026L21.7511 13.7582L20.5901 12.3398H12.5469V21.6037H20.4113L21.6617 20.1854L22.8238 21.6037H27.6488V19.429H28.2746C28.9004 19.429 29.7049 19.429 30.3307 19.1453V21.697H34.3511V19.2398H34.5299C34.7981 19.2398 34.7981 19.2398 34.7981 19.5235V21.697H46.9512C47.7557 21.697 48.5603 21.5079 49.0073 21.131V21.697H52.8489C53.6535 21.697 54.458 21.6025 54.9944 21.2242C55.8884 20.6582 56.4247 19.6181 56.4247 18.3888C56.4247 17.7282 56.246 17.0663 55.9778 16.5936ZM28.2734 18.1052H26.4854V20.3745H23.6272L21.8393 18.1997L19.9631 20.3745H14.0666V13.6636H20.0537L21.8417 15.8371L23.7178 13.6636H28.4534C29.6155 13.6636 30.9553 14.0418 30.9553 15.8371C30.8659 17.7282 29.6143 18.1052 28.2746 18.1052H28.2734ZM37.2094 17.7282C37.3882 18.0106 37.4776 18.3888 37.4776 18.9562V20.28H35.959V19.429C35.959 19.0507 35.959 18.3888 35.6908 18.1052C35.5121 17.8228 35.1545 17.8228 34.6181 17.8228H33.0102V20.28H31.4904V13.5691H34.8863C35.6015 13.5691 36.2272 13.5691 36.6742 13.8527C37.1212 14.1364 37.4776 14.6079 37.4776 15.3643C37.4776 16.4045 36.853 16.9718 36.406 17.1609C36.853 17.35 37.1212 17.5391 37.2094 17.7282ZM43.3753 14.9861H39.8913V16.2153H43.2859V17.5391H39.8913V18.8616H43.3753V20.28H38.3727V13.5691H43.3777V14.9874L43.3753 14.9861ZM47.1287 20.28H44.2693V18.8616H47.1287C47.3969 18.8616 47.5757 18.8616 47.7545 18.6725C47.8664 18.5431 47.93 18.3751 47.9333 18.1997C47.93 18.0244 47.8664 17.8563 47.7545 17.727C47.6651 17.6337 47.4863 17.5391 47.2181 17.5391C45.789 17.4446 44.0905 17.5391 44.0905 15.4589C44.0905 14.5133 44.6269 13.4745 46.236 13.4745H49.1836V15.0807H46.4148C46.1466 15.0807 45.9678 15.0807 45.789 15.1752C45.6102 15.2698 45.6102 15.4589 45.6102 15.648C45.6102 15.9317 45.789 16.0262 45.9678 16.1208C46.1466 16.2153 46.3254 16.2153 46.5042 16.2153H47.3075C48.1121 16.2153 48.6485 16.4045 49.0061 16.7827C49.2743 17.0663 49.453 17.5391 49.453 18.201C49.453 19.6181 48.6485 20.28 47.1287 20.28ZM54.8144 19.6181C54.4568 19.9963 53.831 20.28 52.9383 20.28H50.0788V18.8616H52.9383C53.2053 18.8616 53.3853 18.8616 53.5629 18.6725C53.6748 18.5431 53.7383 18.3751 53.7416 18.1997C53.7383 18.0244 53.6748 17.8563 53.5629 17.727C53.4735 17.6337 53.2959 17.5391 53.0277 17.5391C51.5973 17.4446 49.8988 17.5391 49.8988 15.4589C49.8988 14.5133 50.4352 13.4745 52.0443 13.4745H54.9932V15.0807H52.3113C52.0443 15.0807 51.8643 15.0807 51.6867 15.1752C51.5079 15.2698 51.5079 15.4589 51.5079 15.648C51.5079 15.9317 51.5973 16.0262 51.8655 16.1208C52.0443 16.2153 52.2231 16.2153 52.4019 16.2153H53.2065C54.0098 16.2153 54.5474 16.4045 54.9038 16.7827C54.9932 16.7827 54.9932 16.8772 54.9932 16.8772C55.2614 17.2555 55.3508 17.7282 55.3508 18.1997C55.3508 18.7671 55.172 19.2398 54.8144 19.6181Z" fill="black"/>
<path d="M24.9669 19.7133V14.3262L22.6426 16.9699L24.9669 19.712V19.7133Z" fill="black"/>
<path d="M48.291 9.97852L48.4704 10.2613H48.5595L48.2922 9.97852H48.291Z" fill="#228FE0"/>
<path d="M34.8749 14.9854H32.9988V16.6874H34.9643C35.5007 16.6874 35.8583 16.4037 35.8583 15.8364C35.7689 15.269 35.4113 14.9854 34.8749 14.9854ZM28.7199 3.57227H26.8438V5.27427H28.8093C29.3456 5.27427 29.7032 4.9906 29.7032 4.42327C29.6138 3.85593 29.2562 3.57227 28.7199 3.57227Z" fill="black"/>
</svg>
