<svg width="60" height="21" viewBox="0 0 60 21" fill="none" xmlns="http://www.w3.org/2000/svg">
<path d="M22.4657 20.3934L25.4656 2.56487H30.15L27.2457 20.3934H22.4657ZM44.2032 2.76351C43.2669 2.36798 41.767 1.9707 39.8929 1.9707C35.2085 1.9707 31.8362 4.44669 31.8362 8.01343C31.8362 10.6881 34.1767 12.0733 36.0524 12.9654C37.9265 13.8558 38.4886 14.4517 38.4886 15.2427C38.4886 16.4311 36.9887 17.0252 35.6766 17.0252C33.8026 17.0252 32.7724 16.729 31.1802 16.0355L30.5241 15.7393L29.8681 19.7992C30.9923 20.294 33.0542 20.7889 35.2085 20.7889C40.1748 20.7889 43.4532 18.3146 43.4532 14.551C43.4532 12.4705 42.2351 10.8849 39.4248 9.59729C37.7386 8.70691 36.7085 8.21032 36.7085 7.31995C36.7085 6.52714 37.5507 5.73434 39.4248 5.73434C41.0171 5.73434 42.1412 6.03055 42.9851 6.42782L43.4532 6.62646L44.2032 2.76351ZM52.2599 2.56487C51.1358 2.56487 50.2919 2.66419 49.8238 3.85426L42.7972 20.3934H47.8574L48.7936 17.4225H54.79L55.3504 20.3934H59.8502L55.9125 2.56487H52.2583H52.2599ZM50.104 14.4517C50.3858 13.5596 51.9781 9.20176 51.9781 9.20176C51.9781 9.20176 52.3539 8.11275 52.6341 7.41926L52.9143 9.10244C52.9143 9.10244 53.8538 13.5596 54.0401 14.5493H50.104V14.4517ZM13.8486 15.0459L13.3804 12.4706C12.5365 9.49797 9.82017 6.23093 6.82031 4.64707L11.0382 20.4927H16.0968L23.6855 2.66419H18.6253L13.8502 15.0459H13.8486Z" fill="black"/>
<path d="M13.3313 10.6909C13.3445 10.7275 13.356 10.7659 13.3791 10.8025L13.2028 10.0462L11.6929 2.48412C11.4127 1.29231 10.5688 0.996094 9.53699 0.996094H0.824219L3.81089 1.96314C7.49973 3.44768 10.5556 5.84875 12.3127 8.63662C12.7462 9.3667 13.0973 10.1212 13.3791 10.9018L13.3313 10.6909Z" fill="#858585"/>
</svg>
