<svg width="73" height="22" viewBox="0 0 73 22" fill="none" xmlns="http://www.w3.org/2000/svg">
<path d="M49.4694 0.996094H43.9266C43.6015 0.996094 43.2749 1.33914 43.1116 1.68065L40.8301 16.7486C40.8301 17.0901 40.9934 17.2616 41.3199 17.2616H44.2532C44.5797 17.2616 44.7415 17.0901 44.7415 16.7486L45.3947 12.4682C45.3947 12.1251 45.7198 11.7836 46.2096 11.7836H48.0028C51.7495 11.7836 53.8692 9.89992 54.3591 6.13257C54.6842 4.59193 54.3591 3.22282 53.706 2.36521C52.7292 1.51066 51.2611 0.996094 49.4694 0.996094ZM50.1211 6.64713C49.7945 8.7008 48.3279 8.7008 46.8613 8.7008H45.883L46.5347 4.76345C46.5347 4.59193 46.698 4.42041 47.0246 4.42041H47.3497C48.3279 4.42041 49.3061 4.42041 49.7945 5.10496C50.1211 5.27649 50.1211 5.79105 50.1211 6.64713Z" fill="#858585"/>
<path d="M9.53777 0.996094H3.99641C3.66985 0.996094 3.34328 1.33914 3.18 1.68065L0.898438 16.7486C0.898438 17.0901 1.06172 17.2616 1.38828 17.2616H3.99641C4.32151 17.2616 4.64808 16.9201 4.81136 16.577L5.46303 12.4682C5.46303 12.1251 5.78959 11.7836 6.27798 11.7836H8.07116C11.8193 11.7836 13.9391 9.89993 14.4275 6.13257C14.754 4.59193 14.4275 3.22282 13.7758 2.36521C12.7976 1.51066 11.4942 0.996094 9.53777 0.996094ZM10.1894 6.64713C9.86433 8.7008 8.39626 8.7008 6.92964 8.7008H6.11469L6.76636 4.76345C6.76636 4.59193 6.92964 4.42041 7.25621 4.42041H7.58131C8.55954 4.42041 9.53777 4.42041 10.0262 5.10497C10.1894 5.27649 10.3527 5.79105 10.1894 6.64713ZM26.3237 6.47561H23.717C23.5537 6.47561 23.2286 6.64713 23.2286 6.81712L23.0653 7.67473L22.9021 7.33169C22.2504 6.47408 21.1089 6.13257 19.8055 6.13257C16.8709 6.13257 14.2642 8.52928 13.7743 11.7836C13.4492 13.4958 13.9376 15.0364 14.7526 16.064C15.5675 17.0901 16.709 17.4331 18.1756 17.4331C20.6205 17.4331 21.9238 15.8925 21.9238 15.8925L21.7605 16.7486C21.7605 17.0901 21.9238 17.2616 22.2504 17.2616H24.6952C25.0218 17.2616 25.3469 16.9201 25.5102 16.577L26.9768 6.99018C26.8135 6.81712 26.4884 6.47561 26.3251 6.47561H26.3237ZM22.577 11.9521C22.2504 13.4942 21.1089 14.6934 19.479 14.6934C18.664 14.6934 18.0124 14.3503 17.6858 14.0073C17.3607 13.4942 17.1974 12.8081 17.1974 11.9521C17.3607 10.4114 18.664 9.21384 20.1307 9.21384C20.9471 9.21384 21.4354 9.55535 21.9238 9.89839C22.4137 10.4114 22.5755 11.2675 22.5755 11.9521H22.577Z" fill="black"/>
<path d="M66.0933 6.47586H63.4852C63.3233 6.47586 62.9968 6.64738 62.9968 6.81737L62.8335 7.67498L62.6702 7.33194C62.0185 6.47433 60.877 6.13281 59.5737 6.13281C56.6404 6.13281 54.0323 8.52953 53.5439 11.7839C53.2173 13.496 53.7057 15.0366 54.5207 16.0642C55.3371 17.0903 56.4771 17.4334 57.9438 17.4334C60.3886 17.4334 61.6934 15.8927 61.6934 15.8927L61.5302 16.7488C61.5302 17.0903 61.6934 17.2618 62.0185 17.2618H64.4634C64.79 17.2618 65.1151 16.9203 65.2798 16.5773L66.745 6.99042C66.5832 6.81737 66.4199 6.47586 66.0933 6.47586ZM62.3466 11.9523C62.02 13.4945 60.8799 14.6936 59.25 14.6936C58.4336 14.6936 57.7819 14.3506 57.4568 14.0075C57.1303 13.4945 56.967 12.8084 56.967 11.9523C57.1303 10.4117 58.4351 9.21408 59.9017 9.21408C60.7167 9.21408 61.205 9.5556 61.6949 9.89864C62.3466 10.4117 62.5099 11.2678 62.3466 11.9523Z" fill="#858585"/>
<path d="M40.5059 6.47419H37.7359C37.4093 6.47419 37.2461 6.64571 37.0828 6.8157L33.4964 12.6398L31.8665 7.15721C31.7047 6.81417 31.5414 6.64418 31.0516 6.64418H28.4449C28.1184 6.64418 27.9551 6.98569 27.9551 7.32873L30.8898 16.4026L28.1184 20.5114C27.9551 20.8545 28.1184 21.369 28.4449 21.369H31.0516C31.3781 21.369 31.5414 21.1975 31.7047 21.026L40.6691 7.50026C41.1575 6.98569 40.831 6.47266 40.5059 6.47266V6.47419Z" fill="black"/>
<path d="M69.1917 1.5119L66.9102 16.9213C66.9102 17.2628 67.0734 17.4344 67.3985 17.4344H69.6801C70.0067 17.4344 70.3332 17.0928 70.4965 16.7498L72.7781 1.68189C72.7781 1.34037 72.6148 1.16885 72.2882 1.16885H69.6801C69.5183 0.997329 69.355 1.16885 69.1917 1.5119Z" fill="#858585"/>
</svg>
