<svg width="43" height="23" viewBox="0 0 43 23" fill="none" xmlns="http://www.w3.org/2000/svg">
<path d="M9.41861 1.19963L17.6057 2.68769V14.4722C16.8777 15.9781 15.7943 17.3794 14.3658 18.63C12.9623 19.8629 11.2978 20.894 9.40982 21.7044C7.52058 20.894 5.85729 19.8629 4.45386 18.6288C3.03285 17.3781 1.94073 15.9781 1.2139 14.4722V2.68769L9.41861 1.19836V1.19963ZM9.41861 0L0.0703125 1.70118V14.7363C0.867435 16.4899 2.08885 18.1017 3.7082 19.5196C5.31123 20.9285 7.23562 22.0911 9.41861 22.9717C11.6016 22.0911 13.5247 20.9298 15.1278 19.5196C16.7471 18.0928 17.9698 16.4899 18.7669 14.7363V1.70118L9.41861 0Z" fill="#E5E5E5"/>
<path d="M24.2434 2.16744H26.6171L29.0524 13.3891H26.9988L26.5217 10.7997H24.4078L23.9145 13.3904H21.8269L24.2434 2.16744ZM26.2707 9.49669L25.4485 4.78366L24.625 9.49669H26.2707ZM30.2651 2.16744H35.3679V3.6121H32.4744V6.8358H34.7528V8.26259H32.4744V11.9891H35.4031V13.3891H30.2651V2.16744ZM37.2823 12.6757C36.7362 12.104 36.4412 11.2489 36.391 10.1131L38.2965 9.76852C38.3217 10.4832 38.4522 11.0192 38.6606 11.3982C38.8765 11.7683 39.2142 11.9623 39.6736 11.9623C40.0126 11.9623 40.2636 11.8653 40.4356 11.6815C40.6013 11.4952 40.6867 11.231 40.6867 10.9145C40.6867 10.4743 40.5837 10.0952 40.3666 9.78638C40.1506 9.47882 39.8117 9.13552 39.3535 8.76542L37.8195 7.53261C37.3513 7.16251 36.996 6.76688 36.7626 6.34318C36.5291 5.91948 36.4073 5.409 36.4073 4.81939C36.4073 3.93881 36.6835 3.25987 37.2396 2.77619C37.7932 2.29123 38.5652 2.04492 39.5431 2.04492C40.5925 2.04492 41.3457 2.31803 41.8051 2.8719C42.2646 3.41812 42.5244 4.16725 42.5935 5.0925L40.6879 5.40007C40.6616 4.79259 40.5661 4.33443 40.4105 4.01794C40.2536 3.70909 39.951 3.55084 39.5004 3.55084C39.1803 3.55084 38.928 3.64784 38.7472 3.85075C38.5641 4.05778 38.4677 4.32933 38.4786 4.60754C38.4786 4.96871 38.5564 5.26862 38.7121 5.51492C38.8677 5.76123 39.1188 6.01647 39.474 6.29851L40.9904 7.53261C41.5629 7.98183 42.0047 8.46551 42.3248 8.98493C42.6449 9.50562 42.8018 10.1042 42.8018 10.7818C42.8018 11.3191 42.6713 11.7951 42.4202 12.2086C42.1586 12.6301 41.7864 12.9691 41.3457 13.1875C40.8862 13.4248 40.3578 13.5397 39.7514 13.5397C38.6518 13.5397 37.8283 13.2487 37.2823 12.6757ZM21.8093 20.8855L23.4211 18.5858C23.4462 18.5424 23.4726 18.5156 23.4902 18.4812C23.5077 18.4544 23.5328 18.4276 23.5504 18.4008C23.7412 18.12 23.8894 17.8903 23.9747 17.7052C24.0701 17.5202 24.1128 17.3096 24.1128 17.0799C24.1128 16.6128 23.932 16.3754 23.5768 16.3754C23.3345 16.3754 23.1613 16.4635 23.0659 16.6396C22.9705 16.8157 22.9177 17.0454 22.9177 17.3441V17.5993H21.8357V17.3351C21.8357 16.7723 21.9738 16.3231 22.2512 16.0053C22.5273 15.6888 22.9617 15.5204 23.5592 15.5204C24.1053 15.5204 24.5296 15.6608 24.8145 15.9351C25.102 16.2082 25.2413 16.5962 25.2413 17.0965C25.2413 17.4053 25.1786 17.6784 25.0668 17.9171C24.9539 18.1545 24.7718 18.4454 24.5296 18.7977L24.4342 18.9304L23.0834 20.7975H25.0668V21.6245H21.8093V20.8843V20.8855ZM26.2104 21.2467C25.9669 20.9379 25.8552 20.4886 25.8552 19.8901H26.9473C26.9473 20.2334 26.99 20.4899 27.0678 20.6648C27.1456 20.8409 27.3101 20.9289 27.5448 20.9289C27.7268 20.9289 27.8561 20.8766 27.9428 20.7707C28.0362 20.6454 28.0932 20.4959 28.1072 20.3393C28.1323 20.1543 28.1423 19.908 28.1423 19.5813C28.1423 19.1856 28.0984 18.8947 28.0206 18.7007C27.9428 18.5156 27.7695 18.4199 27.5185 18.4199C27.3782 18.415 27.2415 18.4653 27.1368 18.5603C27.0262 18.6655 26.9455 18.7991 26.9034 18.947H25.9418L26.002 15.5829H28.9395V16.5069H26.936L26.8757 17.9618C26.99 17.8555 27.1265 17.777 27.2749 17.732C27.4482 17.6784 27.639 17.6427 27.8373 17.6427C28.2967 17.6427 28.6432 17.8022 28.8692 18.1277C29.0939 18.4544 29.2068 18.9125 29.2068 19.5021C29.2068 19.9603 29.1629 20.3572 29.0688 20.6737C28.9852 20.9746 28.8049 21.2383 28.5566 21.4228C28.3055 21.6079 27.9591 21.6959 27.5084 21.6959C26.8757 21.7049 26.4427 21.5556 26.2092 21.2467H26.2104ZM30.3341 21.1497C30.0492 20.7886 29.9098 20.3036 29.9098 19.714V17.5993C29.9098 16.9484 30.0404 16.438 30.2914 16.0679C30.5513 15.6978 30.9844 15.5127 31.6083 15.5127C32.1706 15.5127 32.5786 15.6352 32.8385 15.8905C33.0983 16.1457 33.2364 16.5247 33.2452 17.0263V17.1246H32.1706C32.1706 16.8336 32.1367 16.6307 32.0577 16.5082C31.9811 16.3844 31.833 16.3231 31.617 16.3231C31.5217 16.3181 31.427 16.3421 31.3451 16.3921C31.2633 16.4421 31.198 16.5159 31.1576 16.6039C31.0697 16.7889 31.027 17.1144 31.027 17.5738V18.2872C31.1135 18.1597 31.2381 18.064 31.3823 18.0141C31.5392 17.9528 31.7288 17.9171 31.9371 17.9171C32.856 17.9171 33.3155 18.4978 33.3155 19.6527C33.3155 21.0259 32.7431 21.7138 31.6083 21.7138C31.0446 21.6959 30.6203 21.5198 30.3341 21.1497ZM32.0765 20.6303C32.1631 20.4542 32.197 20.19 32.197 19.8288C32.197 19.5557 32.1882 19.3439 32.1719 19.1946C32.1598 19.0573 32.1048 18.9277 32.015 18.8245C31.9284 18.7275 31.7991 18.6841 31.617 18.6841C31.4925 18.6845 31.3702 18.7175 31.2618 18.7798C31.1678 18.8368 31.0855 18.9118 31.0195 19.0006V19.9424C31.0195 20.2245 31.0622 20.4529 31.1576 20.6303C31.253 20.8064 31.3999 20.8945 31.617 20.8945C31.8505 20.9034 31.9974 20.8051 32.0765 20.6303ZM34.1641 15.574H35.7834C36.3985 15.574 36.8755 15.6888 37.2044 15.9262C37.5346 16.1636 37.699 16.5605 37.699 17.1246C37.699 17.4947 37.6212 17.7754 37.4555 17.9873C37.2779 18.2002 37.0268 18.3359 36.7538 18.3663C37.507 18.4978 37.8898 19.0006 37.8898 19.8544C37.8898 20.4363 37.7329 20.8753 37.4304 21.1676C37.1266 21.4662 36.6672 21.6079 36.0621 21.6079H34.1729V15.574H34.1641ZM35.7671 18.0498C36.1136 18.0498 36.347 17.9783 36.4776 17.838C36.6069 17.6976 36.6672 17.4679 36.6672 17.1501C36.6672 16.8425 36.5893 16.6307 36.4249 16.5247C36.2617 16.4099 35.9918 16.3588 35.6026 16.3588H35.3591V18.0575H35.7671V18.0485V18.0498ZM35.8186 20.8409C36.165 20.8409 36.4086 20.7617 36.5466 20.6112C36.6847 20.4618 36.7462 20.2066 36.7462 19.8544C36.7462 19.4932 36.6672 19.229 36.5203 19.0618C36.3734 18.8947 36.1223 18.8155 35.7759 18.8155H35.3591V20.8498H35.8186V20.8409ZM38.6254 15.7769H39.7263V16.6217H38.6254V15.7769ZM38.6254 17.3083H39.7263V21.6168H38.6254V17.3096V17.3083ZM41.0432 21.3871C40.8699 21.202 40.7833 20.92 40.7833 20.5422V17.9694H40.3151V17.3096H40.7833V16.0232H41.8918V17.3096H42.5947V17.9694H41.8918V20.4542C41.8918 20.5946 41.9269 20.7005 41.9959 20.7707C42.065 20.8319 42.1692 20.8677 42.3173 20.8677C42.4554 20.8677 42.5684 20.8587 42.655 20.8421V21.6245C42.4224 21.6612 42.1874 21.6791 41.952 21.6781C41.5202 21.6691 41.2164 21.5721 41.0432 21.3871ZM7.91178 15.3443L3.7793 10.7652L5.27814 9.6192L7.90299 11.531L13.5343 6.56269L15.0331 7.32841L7.91178 15.3443Z" fill="black"/>
</svg>
