<svg width="66" height="23" viewBox="0 0 66 23" fill="none" xmlns="http://www.w3.org/2000/svg">
<path d="M21.5659 9.94453C21.9157 10.1742 22.6287 10.4754 23.2758 10.404C23.8413 10.404 24.2056 10.1028 24.2056 9.64335C24.2056 9.26942 23.9899 8.96823 23.3572 8.58154C22.576 8.12211 22.0092 7.44827 22.0092 6.54344C22.0092 4.95074 23.2889 3.88894 25.0672 3.88894C25.8496 3.88894 26.4955 4.04719 26.8466 4.26286L26.3481 5.85557C26.0641 5.69732 25.5656 5.55438 25.0672 5.55438C24.5016 5.55438 24.0702 5.85557 24.0702 6.31373C24.0702 6.68765 24.3542 6.91737 24.8527 7.21856C25.6339 7.74946 26.3481 8.42329 26.3481 9.34216C26.3481 11.0778 25 12.1396 23.1547 12.0681C22.3064 12.0681 21.5251 11.8384 21.0938 11.5372L21.5647 9.94453H21.5659ZM26.7519 11.767L28.8129 0.417658H30.8739L30.0938 4.96605V5.03752C30.6594 4.36241 31.3735 3.90425 32.3034 3.90425C33.3674 3.90425 34.0133 4.66359 34.0133 5.94107C34.0133 6.31373 33.9462 6.84463 33.8659 7.30406L33.0847 11.767H31.0237L31.8049 7.37681C31.872 7.07434 31.872 6.77316 31.872 6.47198C31.872 6.01254 31.6563 5.63989 31.2381 5.63989C30.6055 5.63989 29.8913 6.47198 29.6085 7.90643L28.8944 11.6955H26.7663V11.767H26.7519ZM41.6114 6.98884C41.6114 9.71481 39.9818 12.0681 37.4894 12.0681C35.6441 12.0681 34.646 10.7051 34.646 8.96823C34.646 6.24226 36.2756 3.88894 38.8363 3.88894C40.6816 3.88894 41.6114 5.41017 41.6114 6.98884ZM36.707 8.96823C36.707 9.80032 36.991 10.404 37.7039 10.404C38.8363 10.404 39.415 8.28036 39.415 6.91737C39.415 6.24226 39.1993 5.55438 38.4181 5.55438C37.3396 5.62585 36.707 7.67671 36.707 8.96823ZM41.0446 14.7941L42.473 6.91737C42.6215 6.01254 42.8228 4.95201 42.9043 4.19012H44.7496L44.601 4.95074C45.1678 4.19012 45.9491 3.746 46.8106 3.746C48.306 3.746 48.9399 5.18046 48.9399 6.63023C48.9399 9.3562 47.3103 12.0107 44.8838 12.0107C44.5339 12.0822 44.0355 11.781 43.8198 11.781H43.7527L43.1871 14.8081H41.0446V14.7941ZM44.0223 10.1028C44.238 10.3325 44.5208 10.404 44.8707 10.404C46.003 10.404 46.8645 8.36586 46.8645 6.91737C46.8645 6.31373 46.6489 5.71136 46.0162 5.71136C45.302 5.71136 44.5879 6.61619 44.3866 7.97917L44.0223 10.1028ZM49.1424 11.767L50.5707 4.19012H52.6988L51.2705 11.767H49.1424ZM51.8505 3.43078C51.2849 3.43078 50.8535 2.82713 50.8535 2.13926C50.8535 1.37864 51.352 0.776272 52.0662 0.776272C52.6988 0.776272 53.1302 1.37864 53.1302 1.98101C53.0487 2.82713 52.4831 3.43078 51.8505 3.43078ZM53.0487 11.767L54.1799 5.71136H53.1829L53.4657 4.19012H54.4627L54.531 3.73069C54.6783 2.82713 55.0294 1.83807 55.7424 1.16296C56.3092 0.632061 57.0221 0.402344 57.8034 0.402344C58.3031 0.402344 58.7332 0.475087 58.9357 0.560593L58.5044 2.29623C58.2887 2.22476 58.073 2.13926 57.8717 2.13926C57.1575 2.13926 56.7393 2.89988 56.659 3.65922L56.4434 4.19012H57.8717L57.5889 5.71136H56.1594L55.0282 11.767H53.0475H53.0487ZM60.5126 4.19012L60.8625 7.67671C60.9296 8.43733 61.0111 8.73852 61.0782 9.49913C61.2268 8.73852 61.361 8.51007 61.7121 7.67671L62.9918 4.19012H65.1199L62.5604 9.94453C61.6306 11.9099 60.7822 13.3443 59.7853 14.3347C59.0711 15.0953 58.1557 15.3965 57.7243 15.5407L57.1575 13.6468C57.5086 13.4886 57.9388 13.3443 58.3702 13.0432C58.8686 12.6705 59.3 12.2111 59.5025 11.6802C59.5696 11.6087 59.5696 11.5232 59.5696 11.379L58.2899 4.19012H60.5126Z" fill="black"/>
<path d="M23.8672 20.9628L24.555 20.9054C24.5813 21.2079 24.6628 21.4363 24.7827 21.638C24.9049 21.8243 25.0942 21.9825 25.3362 22.0974C25.5915 22.2123 25.8755 22.2697 26.1846 22.2697C26.4674 22.2697 26.7094 22.2263 26.9251 22.1395C27.1123 22.073 27.2767 21.9486 27.3972 21.7822C27.5009 21.6411 27.5583 21.4678 27.5607 21.2887C27.5631 21.1096 27.5103 20.9347 27.4104 20.7906C27.3158 20.6476 27.1408 20.5328 26.9119 20.446C26.589 20.3335 26.2611 20.2381 25.9294 20.1601C25.4165 20.0312 25.0666 19.901 24.8641 19.7862C24.6244 19.664 24.4196 19.4759 24.271 19.2412C24.1403 19.0233 24.0747 18.7684 24.0829 18.51C24.0829 18.2088 24.1644 17.9357 24.3249 17.6779C24.4867 17.4188 24.7167 17.2185 25.0259 17.0896C25.3362 16.9607 25.673 16.8879 26.036 16.8879C26.441 16.8879 26.8041 16.9607 27.1276 17.1036C27.438 17.2465 27.68 17.4482 27.855 17.72C28.0299 17.9931 28.1114 18.3083 28.1246 18.6529L27.4236 18.7103C27.3841 18.3377 27.2618 18.0505 27.0473 17.8642C26.8317 17.6779 26.5081 17.5771 26.0768 17.5771C25.6322 17.5771 25.3099 17.6639 25.1062 17.8349C24.9049 18.0072 24.797 18.2228 24.797 18.4666C24.797 18.6823 24.8641 18.8546 25.0127 18.9834C25.1469 19.1264 25.5244 19.2553 26.1175 19.3995C26.7094 19.5424 27.1276 19.6726 27.3433 19.7721C27.6668 19.9304 27.9089 20.1308 28.0575 20.3745C28.2101 20.6336 28.2889 20.9343 28.2842 21.2401C28.2795 21.5459 28.1916 21.8438 28.0311 22.0974C27.8468 22.3782 27.5953 22.6011 27.3026 22.7432C26.9934 22.9001 26.6292 22.9729 26.2385 22.9729C25.7401 22.9729 25.3219 22.9001 24.9852 22.7432C24.6597 22.5996 24.3828 22.3544 24.1907 22.04C23.9855 21.7227 23.873 21.348 23.8672 20.9628ZM30.5235 22.8567V16.9607H34.5256V17.6626H31.2508V19.471H34.3088V20.1601H31.2508V22.1689H34.6455V22.8708H30.5235V22.858V22.8567ZM40.8548 20.7906L41.5821 20.9922C41.4336 21.638 41.1508 22.1255 40.747 22.456C40.3431 22.7853 39.8579 22.9576 39.2779 22.9576C38.686 22.9576 38.2007 22.8287 37.8232 22.5709C37.4376 22.3014 37.1409 21.91 36.9749 21.4516C36.78 20.9512 36.6794 20.4148 36.6789 19.873C36.6789 19.2553 36.7867 18.7244 37.0144 18.2649C37.2301 17.8055 37.5536 17.4622 37.9586 17.2185C38.37 16.9745 38.8347 16.8507 39.3055 16.8598C39.8567 16.8598 40.3288 17.0028 40.7074 17.304C41.0837 17.6064 41.3533 18.0225 41.5019 18.5674L40.7733 18.7537C40.6391 18.3237 40.4642 18.0072 40.2221 17.8221C39.9789 17.6205 39.6697 17.5337 39.3055 17.5337C38.8741 17.5337 38.5242 17.6485 38.2414 17.8642C37.9567 18.0796 37.7442 18.3864 37.6351 18.7397C37.5171 19.1042 37.458 19.4874 37.4602 19.873C37.4602 20.3745 37.5273 20.8046 37.6615 21.1926C37.7969 21.5665 38.0125 21.8524 38.3085 22.0246C38.5913 22.2122 38.9148 22.2978 39.2515 22.2978C39.6554 22.2978 40.0064 22.1689 40.2892 21.9251C40.572 21.652 40.7601 21.2793 40.8548 20.7906ZM47.3625 16.9607H48.091V20.3605C48.091 20.9488 48.0227 21.4223 47.9017 21.7669C47.7819 22.1114 47.5518 22.3986 47.2151 22.613C46.8916 22.8287 46.4602 22.9435 45.921 22.9435C45.3962 22.9435 44.9792 22.8427 44.6557 22.6564C44.334 22.48 44.0845 22.1839 43.9547 21.8243C43.8205 21.4657 43.739 20.9782 43.739 20.3464V16.9453H44.4663V20.3464C44.4663 20.8633 44.5071 21.236 44.6017 21.4797C44.6885 21.7175 44.8503 21.9156 45.0595 22.04C45.2752 22.1676 45.5448 22.2403 45.8539 22.2403C46.3931 22.2403 46.7837 22.1114 47.0126 21.8536C47.2415 21.5946 47.3637 21.093 47.3637 20.3464V16.9607H47.3625ZM50.5678 22.8567V16.9607H53.0206C53.5191 16.9607 53.8834 17.0181 54.1518 17.1176C54.4082 17.2197 54.6095 17.4048 54.7713 17.6779C54.9199 17.9497 55.0002 18.2369 55.0002 18.5674C55.0002 18.9834 54.8803 19.3421 54.6239 19.6292C54.3675 19.9164 53.9769 20.1014 53.4508 20.1741C53.6401 20.275 53.7875 20.3758 53.8954 20.4613C54.1111 20.677 54.3136 20.9348 54.5017 21.25L55.4591 22.858H54.5424L53.8151 21.6239C53.6502 21.3438 53.4747 21.0709 53.2891 20.8059C53.1889 20.6514 53.061 20.5195 52.9128 20.4179C52.8099 20.3453 52.696 20.2922 52.5761 20.2609C52.442 20.2397 52.3066 20.2299 52.1711 20.2316H51.3227V22.858H50.5678V22.8567ZM51.2964 19.5577H52.8721C53.2088 19.5577 53.4652 19.5144 53.6533 19.4429C53.8331 19.3829 53.9864 19.2554 54.0847 19.0843C54.1799 18.9256 54.2309 18.7416 54.2321 18.5534C54.2343 18.4236 54.2101 18.2948 54.1613 18.1759C54.1125 18.057 54.0402 17.9507 53.9493 17.8642C53.7612 17.6779 53.4652 17.5911 53.047 17.5911H51.2964V19.5565V19.5577ZM57.4003 22.8567V16.9607H61.4012V17.6626H58.1276V19.471H61.1855V20.1601H58.1276V22.1689H61.5222V22.8708H57.4003V22.858V22.8567Z" fill="#858585"/>
<path d="M16.8324 5.59616V4.72196H16.8061C15.9169 4.98103 15.0135 5.19543 14.0704 5.36772V5.28221C14.0704 2.19507 11.9292 0.172288 9.22111 0C6.51306 0.172288 4.37059 2.19507 4.37059 5.28094V5.36644C3.44987 5.19882 2.53733 4.98374 1.63617 4.72196H1.60981V5.59744C1.60981 11.5382 1.16526 17.3347 0.330078 22.9155H18.0858C17.2539 17.1853 16.8349 11.3957 16.8324 5.59744V5.59616ZM11.4858 19.1699H6.97079L8.38473 14.7504C7.91813 14.5647 7.51593 14.2316 7.23197 13.7958C6.948 13.3599 6.79584 12.8421 6.79585 12.3116C6.79585 11.6228 7.05276 10.9622 7.51005 10.4751C7.96735 9.9881 8.58758 9.71448 9.23429 9.71448C9.88101 9.71448 10.5012 9.9881 10.9585 10.4751C11.4158 10.9622 11.6727 11.6228 11.6727 12.3116C11.6727 12.8421 11.5206 13.3599 11.2366 13.7958C10.9527 14.2316 10.5505 14.5647 10.0839 14.7504L11.4846 19.1699H11.4858ZM13.4929 5.46726C12.1185 5.68294 10.6902 5.81184 9.22231 5.83992C7.79282 5.81198 6.36643 5.68752 4.95174 5.46726V5.28094C4.95054 2.53965 6.83659 0.788695 9.22111 0.617683C11.6056 0.789971 13.4917 2.53965 13.4917 5.28094V5.46726H13.4929Z" fill="#BDBDBD"/>
</svg>
