<svg width="60" height="23" viewBox="0 0 60 23" fill="none" xmlns="http://www.w3.org/2000/svg">
<path d="M8.61685 0L0.318359 1.55442V13.4321C1.02264 15.0222 2.10351 16.495 3.5463 17.7865C4.9683 19.0691 6.67275 20.1245 8.61685 20.931C10.5487 20.1245 12.2544 19.0678 13.6874 17.7865C15.1302 16.4937 16.2111 15.0222 16.9153 13.4321V1.55442L8.61685 0Z" fill="#EBEBEB"/>
<path d="M7.27603 13.8723L3.61523 9.694L4.94554 8.64879L7.27603 10.3934L12.2781 5.87305L13.6085 6.57241L7.27481 13.8723H7.27603Z" fill="#141414"/>
<path d="M24.9818 13.0766C24.9818 12.6504 25.312 12.496 25.8683 12.496C26.6643 12.496 27.6535 12.7448 28.4482 13.1953V10.6327C27.6266 10.2963 26.7508 10.1273 25.8683 10.135C23.7542 10.135 22.3555 11.2848 22.3555 13.2081C22.3555 16.2097 26.3121 15.7222 26.3121 17.0163C26.3121 17.514 25.8915 17.6799 25.312 17.6799C24.4475 17.6799 23.3446 17.3136 22.4692 16.8146V19.4015C23.4351 19.8405 24.4133 20.0179 25.312 20.0179C27.4713 20.0179 28.9605 18.9025 28.9605 16.9576C28.9385 13.7173 24.9818 14.2992 24.9818 13.0779V13.0766ZM32.0075 7.96287L29.4728 8.53206L29.4606 17.2294C29.4606 18.8438 30.621 20.0179 32.1555 20.0179C33.0077 20.0179 33.6337 19.852 33.9736 19.6618V17.4553C33.6435 17.5982 31.9965 18.0959 31.9965 16.4943V12.6376H33.9736V10.3251H31.9965L32.0075 7.96415V7.96287ZM37.2138 11.1317L37.0426 10.3239H34.8051V19.829H37.407V13.3855C38.0208 12.5559 39.0674 12.6963 39.3853 12.8163V10.3124C39.0442 10.1937 37.8276 9.95631 37.2138 11.1317ZM40.0223 10.3239H42.6365V19.829H40.0223V10.3239ZM40.0223 9.49432L42.6365 8.91237V6.70454L40.0223 7.28649V9.49432ZM48.0592 10.135C47.0358 10.135 46.3877 10.6327 46.0246 10.9773L45.8877 10.3009H43.6024V22.9723L46.2068 22.3904L46.2178 19.3173C46.5932 19.6019 47.1385 20.0051 48.0592 20.0051C49.9238 20.0051 51.6173 18.4392 51.6173 14.9986C51.605 11.854 49.8896 10.1337 48.0592 10.1337V10.135ZM47.4344 17.6212C46.8206 17.6212 46.4562 17.3966 46.2068 17.1107L46.1946 13.0779C46.4672 12.7563 46.8426 12.5419 47.4344 12.5419C48.3771 12.5419 49.0361 13.6471 49.0361 15.0701C49.0361 16.5415 48.4003 17.6225 47.4344 17.6225V17.6212ZM59.8143 15.1173C59.8143 12.3415 58.5182 10.1465 56.0508 10.1465C53.5724 10.1465 52.0721 12.3415 52.0721 15.1058C52.0721 18.3805 53.845 20.0307 56.3809 20.0307C57.6195 20.0307 58.5524 19.7333 59.2677 19.3185V17.1464C58.5634 17.5153 57.7455 17.7399 56.722 17.7399C55.7096 17.7399 54.8122 17.3723 54.6985 16.091H59.791C59.791 15.9366 59.8143 15.3789 59.8143 15.1173ZM54.6752 14.0861C54.6752 12.8635 55.3917 12.353 56.0508 12.353C56.6866 12.353 57.3591 12.8635 57.3591 14.0861H54.6752ZM22.7797 1.46061C23.017 1.41339 23.3361 1.37765 23.7457 1.37765C24.2445 1.37765 24.6089 1.49634 24.8363 1.70947C25.0528 1.9009 25.1775 2.19698 25.1775 2.56453C25.1775 2.93207 25.0748 3.21667 24.8816 3.43107C24.6199 3.72715 24.1883 3.88157 23.6882 3.88157C23.5403 3.88157 23.4033 3.86881 23.2786 3.84584V5.47172H22.7785V1.46061H22.7797ZM23.2896 3.41831C23.4033 3.45404 23.5403 3.46553 23.7102 3.46553C24.313 3.46553 24.6884 3.15796 24.6884 2.60026C24.6884 2.06553 24.3252 1.80518 23.7677 1.80518C23.5513 1.80518 23.3813 1.82816 23.2908 1.8524V3.41831H23.2896ZM28.2245 3.98877C28.2245 5.06844 27.5079 5.54191 26.8379 5.54191C26.0762 5.54191 25.4966 4.96124 25.4966 4.03599C25.4966 3.06225 26.1104 2.48157 26.8831 2.48157C27.6779 2.49306 28.2245 3.09798 28.2245 3.98749V3.98877ZM26.0077 4.02323C26.0077 4.66388 26.3598 5.15139 26.8599 5.15139C27.349 5.15139 27.7134 4.67665 27.7134 4.01174C27.7134 3.51402 27.4749 2.88485 26.8721 2.88485C26.2693 2.88485 26.0077 3.46553 26.0077 4.02323ZM29.0302 2.55304L29.4056 4.03599C29.4851 4.35504 29.5645 4.66388 29.611 4.96124H29.633C29.7015 4.66388 29.792 4.35632 29.8837 4.03599L30.3385 2.54028H30.7701L31.2017 4.00026C31.3044 4.34483 31.3839 4.6524 31.4524 4.94975H31.4744C31.5209 4.6524 31.6003 4.34356 31.6908 4.00026L32.0882 2.54028H32.5895L31.6908 5.45896H31.225L30.7934 4.07172C30.6911 3.75703 30.6074 3.4361 30.5427 3.11074H30.5305C30.4632 3.45532 30.3715 3.76161 30.281 4.07172L29.8262 5.45896H29.3493L28.5081 2.54028H29.0302V2.55304ZM33.3048 4.11894C33.317 4.83107 33.7596 5.12715 34.2585 5.12715C34.6229 5.12715 34.8393 5.05568 35.0325 4.974L35.1242 5.35303C34.9408 5.43599 34.6351 5.5317 34.1913 5.5317C33.3268 5.5317 32.8157 4.93699 32.8157 4.05896C32.8157 3.18093 33.317 2.48157 34.124 2.48157C35.0325 2.48157 35.2831 3.32387 35.2831 3.85732C35.2831 3.96452 35.2709 4.04748 35.2599 4.10618H33.3036V4.11894H33.3048ZM34.794 3.73863C34.8063 3.40682 34.6571 2.87337 34.0885 2.87337C33.5775 2.87337 33.35 3.37109 33.3048 3.73863H34.794ZM35.9092 3.46553C35.9092 3.12095 35.8982 2.82487 35.8871 2.55304H36.3298L36.353 3.12223H36.3762C36.5009 2.73043 36.8078 2.48157 37.149 2.48157C37.2052 2.48157 37.2505 2.49306 37.2957 2.50454V3.00226C37.2395 2.99205 37.1942 2.97929 37.1257 2.97929C36.7626 2.97929 36.512 3.26389 36.4435 3.65568C36.4294 3.73784 36.4221 3.82109 36.4215 3.90454V5.45896H35.9202V3.46553H35.9092ZM38.0232 4.11894C38.0354 4.83107 38.4781 5.12715 38.9781 5.12715C39.3425 5.12715 39.5577 5.05568 39.7521 4.974L39.8426 5.35303C39.6604 5.43599 39.3535 5.5317 38.9097 5.5317C38.0464 5.5317 37.5341 4.93699 37.5341 4.05896C37.5341 3.18093 38.0354 2.48157 38.8424 2.48157C39.7521 2.48157 40.0016 3.32387 40.0016 3.85732C40.0016 3.96452 39.9893 4.04748 39.9783 4.10618H38.0232V4.11894ZM39.5125 3.73863C39.5247 3.40682 39.3767 2.87337 38.8082 2.87337C38.2959 2.87337 38.0685 3.37109 38.0232 3.73863H39.5125ZM43.0485 1.20026V4.72259C43.0485 4.98421 43.0608 5.28157 43.0718 5.48321H42.6169L42.5937 4.97272H42.5827C42.4237 5.29305 42.0814 5.54191 41.6278 5.54191C40.9565 5.54191 40.4344 4.94975 40.4344 4.05896C40.4222 3.08649 41.0029 2.49306 41.684 2.49306C42.1168 2.49306 42.4005 2.70618 42.5252 2.94356H42.5374V1.20026H43.0485ZM42.5484 3.7514C42.5484 3.67993 42.5362 3.59698 42.5252 3.52551C42.4871 3.3506 42.3933 3.19433 42.2592 3.08216C42.1251 2.97 41.9586 2.90855 41.7867 2.90782C41.2634 2.90782 40.9455 3.39533 40.9455 4.03599C40.9455 4.62943 41.2181 5.11566 41.7757 5.11566C42.1168 5.11566 42.4237 4.87829 42.5252 4.48649C42.5497 4.41502 42.5497 4.34356 42.5497 4.2606V3.75012L42.5484 3.7514ZM45.0941 5.47172C45.1039 5.27008 45.1161 4.974 45.1161 4.71238V1.1875H45.6162V3.01503H45.6284C45.8094 2.69597 46.1273 2.48157 46.5822 2.48157C47.2754 2.48157 47.7645 3.08649 47.7645 3.97601C47.7645 5.01994 47.1397 5.54191 46.5137 5.54191C46.1053 5.54191 45.7862 5.37601 45.582 4.99697H45.5587L45.5367 5.48321H45.0929V5.47044L45.0941 5.47172ZM45.6272 4.3091C45.6272 4.37929 45.6394 4.43927 45.6505 4.49798C45.694 4.67441 45.7924 4.83077 45.9303 4.94255C46.0681 5.05433 46.2376 5.11521 46.4122 5.11566C46.9465 5.11566 47.2644 4.66388 47.2644 3.98877C47.2644 3.40682 46.9795 2.90782 46.4342 2.90782C46.2543 2.91234 46.081 2.97889 45.9412 3.09711C45.8014 3.21532 45.703 3.37853 45.6615 3.56124C45.6492 3.61995 45.6272 3.69141 45.6272 3.77437V4.3091ZM48.5507 2.55304L49.1645 4.27336C49.233 4.46224 49.3002 4.69962 49.3467 4.8668H49.3577C49.4139 4.68813 49.4714 4.46224 49.5399 4.2606L50.095 2.55304H50.6293L49.8676 4.62943C49.5044 5.62487 49.2538 6.14811 48.9139 6.45568C48.6632 6.68156 48.4125 6.776 48.2878 6.80025L48.1631 6.34975C48.2878 6.30253 48.4578 6.2183 48.6057 6.08813C48.7427 5.96944 48.9126 5.76908 49.0386 5.49469C49.0606 5.43599 49.0838 5.40025 49.0838 5.36452C49.0794 5.31576 49.0678 5.26799 49.0496 5.22286L48.0164 2.52752H48.5507V2.55304Z" fill="black"/>
</svg>
