<svg width="13" height="14" viewBox="0 0 13 14" fill="none" xmlns="http://www.w3.org/2000/svg">
    <path d="M10.0624 8.75009C9.73489 8.75174 9.41196 8.82689 9.1174 8.97C8.82285 9.11311 8.56418 9.32054 8.36049 9.57696L5.16237 7.57759C5.27892 7.20141 5.27892 6.79877 5.16237 6.42259L8.36049 4.42321C8.68509 4.82515 9.14148 5.09923 9.64881 5.19689C10.1561 5.29456 10.6817 5.2095 11.1323 4.9568C11.5829 4.7041 11.9295 4.30006 12.1108 3.81625C12.292 3.33244 12.2962 2.8001 12.1225 2.31352C11.9489 1.82694 11.6086 1.41753 11.162 1.15781C10.7153 0.898102 10.1912 0.804849 9.68242 0.894574C9.17363 0.984299 8.71301 1.25121 8.38217 1.64803C8.05133 2.04485 7.87162 2.54596 7.87487 3.06259C7.87693 3.25823 7.90638 3.45262 7.96237 3.64009L4.76424 5.63946C4.4819 5.28403 4.09598 5.02524 3.65997 4.89895C3.22396 4.77266 2.75947 4.78514 2.33087 4.93466C1.90228 5.08417 1.53081 5.36332 1.26795 5.7334C1.0051 6.10348 0.863892 6.54616 0.863892 7.00009C0.863892 7.45402 1.0051 7.8967 1.26795 8.26678C1.53081 8.63686 1.90228 8.91601 2.33087 9.06552C2.75947 9.21504 3.22396 9.22751 3.65997 9.10123C4.09598 8.97494 4.4819 8.71615 4.76424 8.36071L7.96237 10.3601C7.90638 10.5476 7.87693 10.7419 7.87487 10.9376C7.87487 11.3702 8.00316 11.7932 8.24353 12.1529C8.48389 12.5126 8.82553 12.793 9.22525 12.9586C9.62496 13.1241 10.0648 13.1675 10.4891 13.0831C10.9135 12.9987 11.3032 12.7903 11.6092 12.4844C11.9151 12.1785 12.1234 11.7887 12.2078 11.3643C12.2922 10.94 12.2489 10.5002 12.0834 10.1005C11.9178 9.70076 11.6374 9.35911 11.2777 9.11875C10.9179 8.87838 10.495 8.75009 10.0624 8.75009ZM10.0624 1.75009C10.322 1.75009 10.5757 1.82707 10.7916 1.97129C11.0074 2.1155 11.1756 2.32049 11.275 2.56032C11.3743 2.80015 11.4003 3.06404 11.3496 3.31865C11.299 3.57325 11.174 3.80711 10.9904 3.99067C10.8069 4.17422 10.573 4.29923 10.3184 4.34987C10.0638 4.40051 9.79992 4.37452 9.56009 4.27518C9.32027 4.17584 9.11528 4.00761 8.97106 3.79177C8.82684 3.57594 8.74987 3.32218 8.74987 3.06259C8.74987 2.71449 8.88815 2.38065 9.13429 2.13451C9.38043 1.88837 9.71427 1.75009 10.0624 1.75009ZM3.06237 8.31259C2.80278 8.31259 2.54902 8.23561 2.33318 8.09139C2.11734 7.94717 1.94912 7.74219 1.84978 7.50236C1.75043 7.26253 1.72444 6.99863 1.77509 6.74403C1.82573 6.48943 1.95073 6.25557 2.13429 6.07201C2.31785 5.88845 2.55171 5.76345 2.80631 5.71281C3.06091 5.66217 3.32481 5.68816 3.56464 5.7875C3.80447 5.88684 4.00945 6.05506 4.15367 6.2709C4.29789 6.48674 4.37487 6.7405 4.37487 7.00009C4.37487 7.34819 4.23659 7.68202 3.99044 7.92817C3.7443 8.17431 3.41046 8.31259 3.06237 8.31259ZM10.0624 12.2501C9.80278 12.2501 9.54902 12.1731 9.33318 12.0289C9.11734 11.8847 8.94911 11.6797 8.84977 11.4399C8.75043 11.2 8.72444 10.9361 8.77509 10.6815C8.82573 10.4269 8.95073 10.1931 9.13429 10.0095C9.31785 9.82595 9.55171 9.70095 9.80631 9.65031C10.0609 9.59966 10.3248 9.62566 10.5646 9.725C10.8045 9.82434 11.0095 9.99256 11.1537 10.2084C11.2979 10.4242 11.3749 10.678 11.3749 10.9376C11.3749 11.2857 11.2366 11.6195 10.9904 11.8657C10.7443 12.1118 10.4105 12.2501 10.0624 12.2501Z" fill="#757062"/>
</svg>