<svg width="14" height="14" viewBox="0 0 14 14" fill="none" xmlns="http://www.w3.org/2000/svg">
    <path d="M3.5 6.77051V10.5H7.22944L6.45167 9.72217H4.27778V7.54829L3.5 6.77051Z" fill="#757062"/>
    <path d="M13.5605 12.5572L12.4444 11.4255V12.4444H1.55549V10.8305H2.33327V10.2083H1.55549V7.62219H2.33327V6.99997H1.55549V4.51108H2.33327V3.88886H1.55549V1.71497L7.75438 7.87886V6.78219L1.44272 0.501636C1.38832 0.446791 1.31883 0.409388 1.24309 0.394194C1.16736 0.379 1.08881 0.386705 1.01747 0.416325C0.946134 0.445946 0.885232 0.49614 0.842532 0.560509C0.799831 0.624878 0.777267 0.700504 0.777717 0.777747V12.8333C0.777717 12.9364 0.818689 13.0354 0.891619 13.1083C0.96455 13.1812 1.06347 13.2222 1.16661 13.2222H13.2844C13.3616 13.2226 13.4373 13.2001 13.5016 13.1574C13.566 13.1147 13.6162 13.0538 13.6458 12.9824C13.6754 12.9111 13.6831 12.8326 13.6679 12.7568C13.6527 12.6811 13.6153 12.6116 13.5605 12.5572Z" fill="#757062"/>
    <path d="M9.33332 11.6667H10.8889C11.0952 11.6667 11.293 11.5847 11.4388 11.4389C11.5847 11.293 11.6667 11.0952 11.6667 10.8889V3.38333L10.7722 1.73833C10.703 1.61848 10.6031 1.51926 10.4828 1.4509C10.3625 1.38254 10.2261 1.34751 10.0878 1.34944C9.94626 1.35056 9.80775 1.39027 9.68715 1.46428C9.56654 1.53829 9.46841 1.64379 9.40332 1.76944L8.55554 3.39111V10.8889C8.55554 11.0952 8.63749 11.293 8.78335 11.4389C8.92921 11.5847 9.12704 11.6667 9.33332 11.6667ZM9.33332 3.57777L10.0878 2.11166L10.8889 3.58166V9.33333H9.33332V3.57777ZM9.33332 9.96722H10.8889V10.9161H9.33332V9.96722Z" fill="#757062"/>
</svg>
