<svg width="32" height="32" viewBox="0 0 32 32" fill="none" xmlns="http://www.w3.org/2000/svg">
<path d="M8.55895 21.1675C8.81437 21.3786 9.19257 21.3427 9.40367 21.0873C9.61478 20.8318 9.57885 20.4537 9.32342 20.2425L8.55895 21.1675ZM13.6469 13.1764L13.3786 12.6397L13.6469 13.1764ZM9.32342 20.2425C8.63407 19.6728 8.09145 18.6522 7.84934 17.3759C7.60922 16.11 7.67815 14.6541 8.14536 13.2805C8.61101 11.9114 9.46887 10.632 10.8043 9.69251C12.1386 8.75378 13.9855 8.1293 16.4704 8.1293V6.9293C13.7788 6.9293 11.681 7.60848 10.1138 8.71107C8.54764 9.8129 7.54719 11.3125 7.00927 12.8941C6.47292 14.471 6.39303 16.1374 6.67036 17.5995C6.94571 19.0511 7.5868 20.364 8.55895 21.1675L9.32342 20.2425ZM16.4704 8.1293C20.4402 8.1293 23.8707 10.7464 23.8707 15.2086H25.0707C25.0707 9.95923 20.9712 6.9293 16.4704 6.9293V8.1293ZM23.8707 15.2086C23.8707 17.4502 23.1978 19.5207 22.1039 21.0164C21.0117 22.5099 19.5293 23.3991 17.8822 23.3991V24.5991C19.9999 24.5991 21.8117 23.4487 23.0725 21.7248C24.3317 20.003 25.0707 17.6782 25.0707 15.2086H23.8707ZM17.8822 23.3991C15.3521 23.3991 13.806 21.3558 13.1937 18.9152C12.892 17.7125 12.8422 16.4831 13.0078 15.4997C13.181 14.4717 13.5532 13.894 13.9152 13.713L13.3786 12.6397C12.478 13.09 12.0131 14.1808 11.8245 15.3004C11.6284 16.4647 11.6924 17.8621 12.0298 19.2072C12.6959 21.8623 14.5301 24.5991 17.8822 24.5991V23.3991ZM13.9152 13.713C14.1411 13.6001 14.5306 13.6135 14.733 13.8456C14.9359 14.0785 15.2077 14.8154 14.4962 16.7315L15.6212 17.1492C16.3576 15.1659 16.3095 13.8279 15.6375 13.0571C14.965 12.2856 13.9246 12.3667 13.3786 12.6397L13.9152 13.713ZM14.4962 16.7315C13.0437 20.6431 10.7119 28.0309 10.2346 29.9736L11.3999 30.26C11.8625 28.3773 14.1778 21.0361 15.6212 17.1492L14.4962 16.7315Z" fill="black"/>
<circle cx="16" cy="16" r="15.4" stroke="black" stroke-width="1.2"/>
</svg>
