<svg width="32" height="32" viewBox="0 0 32 32" fill="none" xmlns="http://www.w3.org/2000/svg">
<path fill-rule="evenodd" clip-rule="evenodd" d="M15.5019 2.74891C14.378 3.86128 13.6928 5.53876 13.6928 7.79234V12.6452H9.0625V17.1169H13.6928V30.9677H18.305V17.1169H22.8103L23.3842 12.6452H18.305V8.33669C18.305 7.52123 18.4113 6.69238 18.9302 6.07424C19.4697 5.43164 20.3422 5.14113 21.5589 5.14113H23.9375V1.19563C23.1799 1.12469 21.7919 1.03226 20.2308 1.03226C18.2454 1.03226 16.6256 1.6368 15.5019 2.74891ZM14.7437 2.02579C16.1058 0.677714 18.0205 0 20.2308 0C21.8448 0 23.2781 0.0961733 24.0602 0.170093C24.6074 0.221807 25 0.671002 25 1.18426V5.14113C25 5.71123 24.5243 6.17339 23.9375 6.17339H21.5589C20.4937 6.17339 20.0049 6.42723 19.7536 6.72667C19.4817 7.05056 19.3675 7.56144 19.3675 8.33669V11.6129H23.3842C24.0232 11.6129 24.5176 12.1569 24.4385 12.7729L23.8647 17.2446C23.7984 17.7614 23.3463 18.1492 22.8103 18.1492H19.3675V30.9677C19.3675 31.5378 18.8918 32 18.305 32H13.6928C13.106 32 12.6303 31.5378 12.6303 30.9677V18.1492H9.0625C8.4757 18.1492 8 17.687 8 17.1169V12.6452C8 12.0751 8.4757 11.6129 9.0625 11.6129H12.6303V7.79234C12.6303 5.33422 13.3819 3.3736 14.7437 2.02579Z" fill="black"/>
</svg>
