<svg width="32" height="32" viewBox="0 0 32 32" fill="none" xmlns="http://www.w3.org/2000/svg">
<g clip-path="url(#clip0)">
<path d="M10.3945 29.1135C6.78079 29.1135 3.28264 28.1056 0.277076 26.1982C-0.0714421 25.9768 -0.00394519 25.6322 0.0252602 25.5323C0.083671 25.3311 0.262148 25.0955 0.573673 25.0955C0.603527 25.0955 0.634031 25.0974 0.665183 25.102C1.13442 25.1597 1.61274 25.1883 2.093 25.1883C3.95176 25.1883 5.82156 24.7645 7.49925 23.963L8.39228 23.5366L7.47848 23.1569C5.5944 22.3742 4.14776 20.825 3.50914 18.9059C3.4371 18.6891 3.49681 18.4464 3.66231 18.2874L4.01082 17.9519L3.64478 17.6351C2.12156 16.317 1.24669 14.4225 1.24669 12.4392C1.24669 12.1763 1.41479 11.8635 1.78472 11.798L2.38895 11.6915L2.09625 11.1522C0.960482 9.05914 1.01889 6.54943 2.25136 4.4382C2.3591 4.25323 2.55185 4.1429 2.76667 4.1429C2.94775 4.1429 3.11195 4.22014 3.22812 4.35967C4.65399 6.08409 6.37971 7.50606 8.35659 8.58407C10.3263 9.65818 12.4525 10.3403 14.6747 10.6116L15.1932 10.6752L15.1692 10.1534C15.0466 7.5158 16.4082 5.16899 18.8115 3.87551C19.8745 3.30244 21.0557 3 22.2279 3C24.0418 3 25.7643 3.70482 27.0779 4.98532L27.1584 5.06385L27.2668 5.09435C27.6652 5.20598 28.0676 5.26309 28.4629 5.26309C29.3241 5.26309 30.1873 5.00154 31.1017 4.46416C31.1952 4.40965 31.2971 4.38174 31.4022 4.38174C31.6904 4.38174 32.0013 4.61019 32.0013 4.97948C32.0013 5.84071 31.7008 6.80838 31.1316 7.778C30.6552 8.59056 29.9939 9.38819 29.317 9.9671L29.1586 10.1027L29.1625 10.3111C29.254 15.1137 27.3888 19.8827 24.0451 23.3951C20.5333 27.0827 15.6858 29.1135 10.3945 29.1135ZM2.70567 14.1058C3.33585 16.1132 5.01159 17.6183 7.07869 18.0343C7.41747 18.1024 7.54662 18.3705 7.55376 18.5989C7.56155 18.828 7.45057 19.1045 7.11633 19.1954C6.70681 19.3057 6.25899 19.3771 5.78521 19.4082L4.98239 19.4601L5.45746 20.1092C6.52573 21.5694 8.24561 22.4644 10.0576 22.5027C10.3672 22.5092 10.5463 22.7201 10.6099 22.9148C10.6411 23.0089 10.7177 23.3347 10.4088 23.5716C8.75767 24.8424 6.78923 25.7263 4.7163 26.1274L3.07885 26.4441L4.65853 26.9789C6.50107 27.6026 8.43122 27.9187 10.3951 27.9187C15.3548 27.9187 19.896 26.019 23.1812 22.5702C26.4419 19.148 28.1806 14.5069 27.9521 9.8386C27.9417 9.63286 28.0365 9.43946 28.2065 9.32004C28.9574 8.79499 29.7356 7.88249 30.2373 6.93753L30.6929 6.07954L29.7473 6.30021C29.3838 6.38523 28.888 6.4339 28.3876 6.4339C27.3005 6.4339 26.6054 6.21454 26.399 5.99712C25.2717 4.81398 23.8491 4.18963 22.285 4.18963C21.2907 4.18963 20.2588 4.45118 19.3781 4.92691C17.5258 5.92443 15.8001 8.09212 16.5133 11.184C16.5542 11.3625 16.5114 11.5487 16.3952 11.6948C16.2836 11.8349 16.12 11.9148 15.9461 11.9148C15.9338 11.9148 15.9214 11.9141 15.9085 11.9135C11.17 11.6857 6.73212 9.7049 3.4066 6.33525L2.85948 5.781L2.66478 6.53515C2.05731 8.8891 2.99707 11.2878 5.05897 12.6469C5.33026 12.8253 5.36141 13.1083 5.3004 13.3134C5.2381 13.5204 5.05248 13.7424 4.71759 13.7424C4.22824 13.7333 3.7285 13.6671 3.23266 13.5451L2.47073 13.3569L2.70567 14.1058Z" fill="black"/>
</g>
<defs>
<clipPath id="clip0">
<rect width="32" height="32" fill="white"/>
</clipPath>
</defs>
</svg>
