<svg width="24" height="24" viewBox="0 0 24 24" fill="none" xmlns="http://www.w3.org/2000/svg">
    <path d="M7.79554 22C5.08539 22 2.46188 21.2281 0.207798 19.7672C-0.0535794 19.5977 -0.00295877 19.3337 0.0189444 19.2572C0.0627507 19.1031 0.196603 18.9227 0.430237 18.9227C0.452627 18.9227 0.475504 18.9241 0.498867 18.9276C0.850778 18.9719 1.2095 18.9937 1.56969 18.9937C2.9637 18.9937 4.36599 18.6692 5.62421 18.0553L6.29396 17.7287L5.60863 17.4379C4.19564 16.8385 3.1107 15.652 2.63175 14.1821C2.57772 14.0161 2.6225 13.8302 2.74662 13.7084L3.008 13.4514L2.73348 13.2089C1.59111 12.1993 0.934984 10.7484 0.934984 9.22935C0.934984 9.02803 1.06105 8.78845 1.33849 8.73824L1.79164 8.65673L1.57212 8.24366C0.720333 6.64062 0.764139 4.71846 1.68845 3.1015C1.76925 2.95984 1.91381 2.87534 2.07492 2.87534C2.21072 2.87534 2.33387 2.93449 2.42099 3.04136C3.49035 4.36206 4.78459 5.45114 6.26719 6.27677C7.74444 7.09941 9.33899 7.62183 11.0056 7.82961L11.3945 7.87832L11.3765 7.47868C11.2845 5.45859 12.3057 3.6612 14.108 2.67054C14.9053 2.23163 15.7912 2 16.6702 2C18.0307 2 19.3225 2.53982 20.3076 3.52053L20.368 3.58067L20.4493 3.60404C20.7481 3.68953 21.0499 3.73327 21.3463 3.73327C21.9922 3.73327 22.6396 3.53296 23.3254 3.12138C23.3955 3.07963 23.4719 3.05826 23.5507 3.05826C23.7669 3.05826 24 3.23322 24 3.51606C24 4.17566 23.7746 4.91679 23.3478 5.65941C22.9905 6.28174 22.4945 6.89263 21.9869 7.33602L21.8681 7.4399L21.871 7.59946C21.9396 11.2778 20.5408 14.9302 18.0331 17.6203C15.3994 20.4447 11.7639 22 7.79554 22ZM2.02917 10.5058C2.50179 12.0432 3.75855 13.1959 5.3088 13.5146C5.56288 13.5668 5.65974 13.772 5.6651 13.947C5.67094 14.1225 5.5877 14.3342 5.33703 14.4038C5.0299 14.4883 4.69405 14.543 4.33874 14.5669L3.73664 14.6066L4.09293 15.1037C4.8941 16.2221 6.18396 16.9075 7.54293 16.9369C7.7751 16.9418 7.90944 17.1034 7.95714 17.2525C7.9805 17.3246 8.03794 17.5741 7.80625 17.7555C6.56799 18.7288 5.09172 19.4058 3.53708 19.713L2.30904 19.9556L3.49376 20.3651C4.87561 20.8428 6.32316 21.0849 7.79603 21.0849C11.5157 21.0849 14.9214 19.63 17.3852 16.9886C19.8306 14.3675 21.1346 10.813 20.9632 7.2376C20.9555 7.08003 21.0265 6.9319 21.154 6.84044C21.7172 6.43831 22.3008 5.73944 22.677 5.01571L23.0187 4.35858L22.3096 4.52759C22.037 4.5927 21.6651 4.62998 21.2898 4.62998C20.4746 4.62998 19.9533 4.46197 19.7985 4.29546C18.953 3.3893 17.8861 2.91112 16.7131 2.91112C15.9674 2.91112 15.1935 3.11144 14.533 3.47579C13.1438 4.23979 11.8496 5.89999 12.3845 8.26802C12.4152 8.40471 12.383 8.54737 12.2959 8.65921C12.2122 8.76658 12.0895 8.82772 11.9591 8.82772C11.9498 8.82772 11.9406 8.82722 11.9309 8.82672C8.3772 8.65225 5.04889 7.1352 2.55485 4.55443L2.14453 4.12993L1.9985 4.70753C1.54292 6.51039 2.24771 8.34755 3.79408 9.38841C3.99753 9.5251 4.0209 9.74182 3.97514 9.8989C3.92842 10.0575 3.78921 10.2275 3.53805 10.2275C3.17105 10.2205 2.79627 10.1698 2.4244 10.0763L1.85297 9.9322L2.02917 10.5058Z" fill="black"/>
</svg>
